<svg width="139" height="50" viewBox="0 0 139 50" fill="none" xmlns="http://www.w3.org/2000/svg">
<g clip-path="url(#clip0_15_8278)">
<path d="M130.936 11.3975C132.337 10.8239 133.892 10.5264 135.449 10.5531C136.705 10.5744 137.905 10.7998 138.999 11.2094C138.938 10.1942 138.752 9.21642 138.457 8.28664C135.672 7.60899 132.613 7.82509 129.897 8.95096C131.335 6.72723 133.645 5.03041 136.248 4.25137C135.61 3.48434 134.878 2.80134 134.07 2.2184C133.157 2.60392 132.278 3.08948 131.445 3.67243C130.339 4.4448 129.354 5.36791 128.53 6.3924V0.0747025C128.101 0.0253455 127.663 0 127.219 0C126.775 0 126.337 0.0253455 125.907 0.0747025V6.3924C125.084 5.36924 124.099 4.4448 122.993 3.67243C122.16 3.08948 121.281 2.60525 120.367 2.2184C119.559 2.80268 118.828 3.48567 118.191 4.25271C120.794 5.03175 123.102 6.72589 124.54 8.9523C121.825 7.82642 118.767 7.61032 115.982 8.28531C115.687 9.21642 115.501 10.1942 115.442 11.208C116.536 10.7985 117.734 10.5744 118.987 10.5531C120.543 10.5251 122.098 10.8225 123.501 11.3975C120.427 12.4086 118.022 14.7111 116.671 18.006L119.019 19.2186C120.272 15.9837 122.711 13.9854 125.906 13.5612V23.8181C126.336 23.8675 126.773 23.8928 127.218 23.8928C127.662 23.8928 128.099 23.8675 128.529 23.8181V13.5612C131.725 13.9854 134.163 15.9837 135.416 19.2186L137.764 18.006C136.413 14.7097 134.008 12.4086 130.935 11.3975H130.936Z" fill="white"/>
<path d="M129.124 40.9784C129.839 40.246 130.515 39.4923 131.149 38.7226C131.281 38.5652 131.41 38.4078 131.536 38.2477C135.748 32.9612 137.996 27.0424 138.225 20.6406L135.506 22.0466C135.026 27.2571 133.032 32.1061 129.561 36.4936C129.539 36.5216 129.516 36.5523 129.493 36.5803C128.791 37.462 128.028 38.3224 127.211 39.1562C126.905 39.471 126.591 39.7818 126.27 40.086C125.953 40.3888 125.629 40.6862 125.298 40.9784C123.122 42.9113 120.646 44.6788 117.93 46.2276C117.555 46.4437 117.172 46.6544 116.786 46.8599V49.8453C120.694 47.883 124.222 45.5006 127.211 42.8126C130.187 45.4872 133.689 47.8604 137.575 49.8133V46.8279C137.21 46.6331 136.849 46.433 136.492 46.2276C133.776 44.6788 131.297 42.9113 129.121 40.9784H129.124Z" fill="white"/>
<path d="M123.275 38.7226L123.734 39.2775L125.524 37.2859L124.863 36.4935C121.39 32.1061 119.396 27.2544 118.917 22.0426L116.198 20.6353C116.426 27.0397 118.675 32.9598 122.888 38.2477C123.014 38.4065 123.143 38.5652 123.274 38.7226H123.275Z" fill="white"/>
<path d="M106.077 33.1959C105.901 33.1011 105.718 33.0024 105.53 32.8984L108.609 31.2456V30.4292L104.844 32.4915V33.3079L105.021 33.4066C105.276 33.5507 105.522 33.6828 105.756 33.8082C106.413 34.1617 106.981 34.4671 107.385 34.83C107.714 35.1235 107.722 35.5223 107.619 35.7971C107.513 36.0786 107.24 36.3801 106.79 36.3801H103.932C103.446 36.3801 103.05 35.9799 103.05 35.4876V31.5764H102.365V35.4876C102.365 36.3614 103.067 37.0737 103.932 37.0737H106.79C107.449 37.0737 108.026 36.6695 108.261 36.0426C108.495 35.4156 108.334 34.7513 107.84 34.3097C107.374 33.8922 106.774 33.5694 106.079 33.1959" fill="white"/>
<path d="M95.5528 37.0752H99.4135C100.277 37.0752 100.981 36.3642 100.981 35.4891V32.8745H100.295V35.4891C100.295 35.9813 99.8999 36.3815 99.4135 36.3815H98.2734V33.3281H97.588V36.3815H95.6675C95.6688 36.3402 95.6728 36.3015 95.6728 36.2601V33.3294H94.9874V36.2601C94.9874 37.458 94.0621 38.0863 93.1486 38.0863C92.6978 38.0863 92.2853 37.9316 91.9887 37.6501C91.65 37.3286 91.4707 36.8484 91.4707 36.2615V35.369H90.7853V36.2615C90.7853 37.0458 91.0397 37.7008 91.5208 38.157C91.9452 38.5586 92.5238 38.7813 93.1499 38.7813C94.1517 38.7813 95.2035 38.1891 95.5528 37.0779" fill="white"/>
<path d="M86.2761 35.4891V31.0229H85.5907V35.4891C85.5907 35.9813 85.1952 36.3815 84.7089 36.3815H82.1386L83.4633 33.6896V32.8065H79.016V33.6869L80.288 36.3815H77.9101C77.4237 36.3815 77.0283 35.9813 77.0283 35.4891V31.0229H76.3429V35.4891C76.3429 36.3642 77.0454 37.0752 77.9101 37.0752H84.7075C85.5722 37.0752 86.2748 36.3642 86.2748 35.4891M81.0419 36.3628L79.7014 33.5001H82.7765L81.3767 36.3628H81.0419Z" fill="white"/>
<path d="M88.3376 31.0229H87.6522V37.0752H88.3376V31.0229Z" fill="white"/>
<path d="M46.4814 35.2997C46.8109 34.9848 47.1101 34.614 47.3685 34.1978C47.6295 33.7803 47.7613 33.3427 47.7613 32.8998C47.7613 32.3649 47.5978 31.938 47.2775 31.6312C46.9572 31.3258 46.5183 31.1697 45.9739 31.1697C45.4296 31.1697 44.9972 31.3351 44.6585 31.6632C44.3197 31.9901 44.1365 32.4596 44.1154 33.0572V33.0893H44.8654V33.0599C44.8812 32.6931 44.9867 32.3969 45.1765 32.1782C45.365 31.9607 45.6365 31.8513 45.9805 31.8513C46.3245 31.8513 46.5947 31.9474 46.7529 32.1381C46.9124 32.3302 46.9928 32.597 46.9928 32.9319C46.9928 33.2894 46.8636 33.6575 46.6092 34.0297C46.3535 34.4046 46.0346 34.7687 45.6615 35.1116C45.2885 35.4544 44.7639 35.9013 44.1022 36.4402L44.0904 36.4495V37.0111H47.9234V36.3455H45.2819C45.763 35.9506 46.1664 35.5985 46.4788 35.2997" fill="white"/>
<path d="M50.6953 31.187C49.9559 31.187 49.4287 31.4498 49.1321 31.9687C48.8382 32.4823 48.6892 33.204 48.6892 34.1151C48.6892 35.0262 48.8382 35.7745 49.1321 36.2895C49.43 36.811 49.9559 37.0752 50.6953 37.0752C51.4348 37.0752 51.9541 36.811 52.252 36.2895C52.546 35.7732 52.6949 35.0422 52.6949 34.1151C52.6949 33.188 52.546 32.481 52.252 31.9687C51.9541 31.4498 51.4308 31.187 50.6967 31.187M51.8395 35.3077C51.7801 35.6238 51.6589 35.8799 51.4783 36.0694C51.299 36.2574 51.0367 36.3535 50.6967 36.3535C50.3566 36.3535 50.0864 36.2574 49.9071 36.0694C49.7266 35.8786 49.6053 35.6225 49.546 35.3077C49.4867 34.9888 49.4563 34.5886 49.4563 34.1151C49.4563 33.6415 49.4867 33.2667 49.546 32.9505C49.6053 32.6384 49.7266 32.3823 49.9071 32.1928C50.0864 32.0034 50.3513 31.9087 50.6967 31.9087C51.042 31.9087 51.3004 32.0047 51.4783 32.1928C51.6589 32.3836 51.7801 32.6384 51.8395 32.9505C51.8988 33.268 51.9291 33.6602 51.9291 34.1151C51.9291 34.57 51.8988 34.9888 51.8395 35.3077Z" fill="white"/>
<path d="M54.1185 36.6669C54.4783 36.9644 54.9436 37.1138 55.5025 37.1138C55.8874 37.1138 56.2222 37.0431 56.4963 36.9044C56.7731 36.7643 56.9827 36.5696 57.1211 36.3241C57.2595 36.08 57.3294 35.8012 57.3294 35.4957C57.3294 35.0889 57.2266 34.7527 57.0249 34.5006C56.8311 34.2578 56.5675 34.0897 56.2406 34.0003C56.5253 33.9256 56.7613 33.7709 56.9418 33.5388C57.1303 33.296 57.2266 33.0039 57.2266 32.6704C57.2266 32.3849 57.158 32.1261 57.0223 31.9007C56.8865 31.6739 56.6848 31.4925 56.4212 31.3617C56.1589 31.231 55.8452 31.1643 55.4867 31.1643C54.9489 31.1643 54.5047 31.3057 54.1646 31.5845C53.8245 31.8646 53.6334 32.2555 53.5965 32.7491L53.5939 32.7824H54.3518L54.3557 32.7557C54.3913 32.4796 54.506 32.2568 54.6984 32.0928C54.8909 31.9287 55.1479 31.846 55.4629 31.846C55.778 31.846 56.0416 31.9287 56.2143 32.0914C56.3869 32.2542 56.4752 32.4729 56.4752 32.7437C56.4752 33.0639 56.3592 33.292 56.1207 33.4441C55.8808 33.5961 55.5196 33.6762 55.0464 33.6815H54.8276V34.3472H55.0385C55.5578 34.3472 55.9506 34.4339 56.2064 34.6046C56.4568 34.7727 56.5846 35.0515 56.5846 35.4357C56.5846 35.7332 56.4911 35.9773 56.3078 36.164C56.1233 36.3508 55.8505 36.4442 55.4946 36.4442C55.1387 36.4442 54.8487 36.3455 54.6365 36.1507C54.423 35.9559 54.2977 35.6998 54.2622 35.3917L54.2595 35.3637H53.5095L53.5122 35.397C53.5543 35.9426 53.7586 36.3708 54.1198 36.6683" fill="white"/>
<path d="M60.962 37.0751H61.7292V35.7972H62.5134V35.1089H61.7292V31.3311H60.8276L58.0648 35.2022L58.0596 35.2103V35.7985H60.962V37.0765V37.0751ZM58.973 35.1089L60.9937 32.2128V35.1089H58.973Z" fill="white"/>
<path d="M5.36466 36.0653L4.14014 31.5031L4.13355 31.4805H3.28734L1.99428 36.084L0.830401 31.5031L0.825129 31.4805H0L1.53954 37.0605L1.54613 37.0832L2.38444 37.0738L3.67881 32.7011L4.92046 37.0525L4.92705 37.0752H5.77327L7.37476 31.4805H6.54172L5.36466 36.0653Z" fill="white"/>
<path d="M11.1208 36.8643C11.4582 36.6775 11.7311 36.4081 11.9288 36.0626C12.1265 35.7184 12.2267 35.3129 12.2267 34.8606C12.2267 34.4084 12.1291 34.0042 11.9367 33.6627C11.7429 33.3199 11.4767 33.0531 11.1445 32.869C10.811 32.6849 10.4354 32.5916 10.0241 32.5916C9.61289 32.5916 9.23591 32.6849 8.90375 32.869C8.57027 33.0531 8.30402 33.3226 8.11158 33.6667C7.91913 34.0109 7.82159 34.4124 7.82159 34.8606C7.82159 35.3089 7.9165 35.7184 8.10367 36.0626C8.29084 36.4081 8.55314 36.6775 8.88398 36.8643C9.21351 37.051 9.58653 37.1457 9.99382 37.1457C10.4011 37.1457 10.7847 37.051 11.1221 36.8643M8.80094 35.7437C8.67572 35.5063 8.61245 35.2088 8.61245 34.862C8.61245 34.5151 8.67704 34.2257 8.8049 33.9882C8.93143 33.7508 9.10279 33.572 9.31368 33.4573C9.52458 33.3412 9.76183 33.2826 10.0162 33.2826C10.2706 33.2826 10.5013 33.3412 10.7161 33.4573C10.9297 33.5734 11.105 33.7521 11.2368 33.9882C11.3699 34.227 11.4371 34.5205 11.4371 34.862C11.4371 35.2035 11.3686 35.4983 11.2328 35.7357C11.0984 35.9732 10.9191 36.1533 10.7003 36.272C10.4815 36.3907 10.2429 36.4507 9.99382 36.4507C9.7447 36.4507 9.5114 36.392 9.30314 36.276C9.09488 36.1599 8.92616 35.9812 8.80226 35.7451" fill="white"/>
<path d="M15.2702 33.3921V32.5837H15.2399C14.9011 32.5837 14.6098 32.6544 14.3739 32.7945C14.1709 32.9146 14.0061 33.0786 13.8822 33.2814V32.6624H13.1072V37.0739H13.8822V34.6781C13.8822 33.8123 14.2645 33.3908 15.0514 33.3908H15.2702V33.3921Z" fill="white"/>
<path d="M16.8071 31.1389H16.032V37.0751H16.8071V31.1389Z" fill="white"/>
<path d="M22.1177 37.0751V31.1389H21.3347V33.368C21.1845 33.1505 20.9788 32.9691 20.7205 32.8291C20.4292 32.6717 20.1102 32.5916 19.7728 32.5916C19.3826 32.5916 19.0241 32.6863 18.7104 32.8731C18.3954 33.0598 18.1449 33.328 17.9657 33.6668C17.7864 34.0056 17.6955 34.4045 17.6955 34.8527C17.6955 35.3009 17.7864 35.6944 17.9657 36.0413C18.1449 36.3881 18.3954 36.6629 18.7104 36.855C19.0254 37.0471 19.38 37.1458 19.7662 37.1458C20.1524 37.1458 20.4727 37.0604 20.7548 36.891C20.9999 36.7429 21.195 36.5575 21.336 36.3374V37.0738H22.119L22.1177 37.0751ZM21.1423 35.7078C21.0144 35.9479 20.8404 36.1333 20.6243 36.2587C20.4081 36.3854 20.1656 36.4495 19.9059 36.4495C19.6463 36.4495 19.4064 36.3854 19.1928 36.2587C18.9793 36.132 18.8066 35.9466 18.6788 35.7078C18.5509 35.4677 18.4863 35.1795 18.4863 34.8527C18.4863 34.5259 18.5509 34.2484 18.6788 34.011C18.8066 33.7735 18.9793 33.5908 19.1928 33.468C19.4064 33.344 19.6462 33.2813 19.9072 33.2813C20.1682 33.2813 20.4081 33.3453 20.6256 33.472C20.8418 33.5988 21.0158 33.7815 21.1436 34.019C21.2715 34.2564 21.336 34.5405 21.336 34.8607C21.336 35.1809 21.2715 35.4663 21.1436 35.7078" fill="white"/>
<path d="M30.4125 35.4436L30.4283 35.4009H29.5096L29.5017 35.4196C29.354 35.7464 29.1366 35.9985 28.8584 36.172C28.579 36.3454 28.2403 36.4334 27.8514 36.4334C27.4626 36.4334 27.1357 36.344 26.8391 36.168C26.5425 35.9919 26.3066 35.7384 26.1366 35.4143C25.9678 35.0901 25.8809 34.7059 25.8809 34.2737C25.8809 33.8415 25.9665 33.4506 26.1366 33.1252C26.3053 32.801 26.5425 32.5475 26.8391 32.3715C27.137 32.1954 27.4771 32.106 27.8514 32.106C28.2258 32.106 28.579 32.1954 28.8584 32.3715C29.1366 32.5475 29.3527 32.8023 29.5017 33.1278L29.5096 33.1452H30.4283L30.4125 33.1038C30.2069 32.5649 29.876 32.1447 29.4279 31.8512C28.9797 31.5577 28.4498 31.4097 27.8501 31.4097C27.34 31.4097 26.8694 31.5337 26.4503 31.7792C26.0311 32.0246 25.6963 32.3688 25.4551 32.8023C25.2126 33.2359 25.09 33.7321 25.09 34.2737C25.09 34.8153 25.2126 35.3102 25.4551 35.7411C25.6976 36.172 26.0324 36.5148 26.4503 36.7562C26.8681 36.999 27.34 37.1217 27.8501 37.1217C28.4498 37.1217 28.9797 36.975 29.4265 36.6842C29.8747 36.3934 30.2055 35.9759 30.4112 35.4436" fill="white"/>
<path d="M34.5104 36.5028V37.075H35.2855V32.6636H34.5104V35.0834C34.5104 35.5289 34.4023 35.8704 34.1888 36.1026C33.9766 36.3333 33.68 36.4494 33.3096 36.4494C32.9393 36.4494 32.6611 36.3373 32.4529 36.1146C32.2459 35.8918 32.1405 35.5663 32.1405 35.1474V32.6636H31.3734V35.2421C31.3734 35.6477 31.4524 35.9972 31.608 36.2813C31.7648 36.5654 31.981 36.7829 32.2525 36.9243C32.5227 37.0657 32.8298 37.1377 33.1686 37.1377C33.4652 37.1377 33.7393 37.0737 33.9858 36.9483C34.2007 36.8389 34.376 36.6882 34.5104 36.5028Z" fill="white"/>
<path d="M39.8395 32.873C39.5245 32.6863 39.1699 32.5916 38.785 32.5916C38.4001 32.5916 38.0759 32.6769 37.7925 32.8463C37.5447 32.9944 37.3483 33.1758 37.2073 33.3879V32.6636H36.4322V39.1387H37.2073V36.348C37.3523 36.5615 37.5513 36.7429 37.8004 36.8923C38.0838 37.0604 38.4146 37.1471 38.785 37.1471C39.1554 37.1471 39.5245 37.0497 39.8395 36.8563C40.1545 36.6628 40.405 36.3894 40.5842 36.0425C40.7635 35.6957 40.8544 35.2955 40.8544 34.854C40.8544 34.4124 40.7635 34.0082 40.5842 33.6681C40.405 33.3292 40.1545 33.0611 39.8395 32.8744M39.8711 35.7077C39.7433 35.9478 39.5693 36.1333 39.3531 36.2586C39.137 36.3854 38.8957 36.4494 38.6348 36.4494C38.3738 36.4494 38.1418 36.3854 37.9243 36.2586C37.7081 36.1333 37.5328 35.9465 37.4023 35.7077C37.2719 35.4676 37.2059 35.1835 37.2059 34.862C37.2059 34.5405 37.2719 34.263 37.4023 34.0229C37.5328 33.7828 37.7081 33.5974 37.9243 33.472C38.1405 33.3452 38.3804 33.2812 38.6348 33.2812C38.8892 33.2812 39.137 33.3439 39.3531 33.468C39.5693 33.592 39.7433 33.7748 39.8711 34.0109C39.999 34.2483 40.0636 34.5325 40.0636 34.8526C40.0636 35.1728 39.999 35.4663 39.8711 35.7077Z" fill="white"/>
<path d="M103.55 30.2064H102.681C102.684 29.8289 102.722 29.6715 103.342 29.6715V29.0898C102.18 29.0898 102.11 29.7768 102.106 30.2064H101.807V30.788H103.55V30.2064Z" fill="white"/>
<path d="M74.9655 35.4864V31.0256H74.2814V35.4864C74.2814 35.9867 73.882 36.3895 73.3891 36.3895H72.9712C72.2489 36.3895 71.8877 35.9467 71.8877 35.0622C71.8877 33.6202 71.1272 32.7358 69.8737 32.7358C68.6202 32.7358 67.8214 33.6589 67.8214 35.0049V35.1009C67.8214 35.5051 67.8214 35.8706 67.6118 36.1001C67.422 36.2922 67.0609 36.3882 66.5284 36.3882H64.799V37.0805H66.5284C67.2125 37.0805 67.687 36.9845 68.1997 36.4656C68.5411 36.9458 69.0921 37.1966 69.8144 37.1966C70.5749 37.1966 71.1628 36.9085 71.5437 36.3695C71.8482 36.8124 72.3227 37.0805 72.9686 37.0805H73.3864C74.2603 37.0805 74.9629 36.3695 74.9629 35.4851L74.9655 35.4864ZM69.817 36.5056C68.9247 36.5056 68.5055 36.0254 68.5055 35.0062C68.5055 34.0444 69.038 33.4295 69.8737 33.4295C70.6527 33.4295 71.2037 34.1018 71.2037 35.0636C71.2037 36.0254 70.7094 36.5056 69.817 36.5056Z" fill="white"/>
<path d="M18.1186 44.6909H15.3967V42.2617H14.6217V47.8564H15.3967V45.3485H18.1186V47.8564H18.8936V42.2617H18.1186V44.6909Z" fill="white"/>
<path d="M23.1049 43.6517C22.7728 43.4676 22.3958 43.3743 21.9846 43.3743C21.5733 43.3743 21.1976 43.4676 20.8642 43.6517C20.5307 43.8358 20.2644 44.104 20.072 44.4495C19.8796 44.7936 19.782 45.1951 19.782 45.6434C19.782 46.0916 19.8769 46.4998 20.0641 46.8453C20.2513 47.1908 20.5136 47.4602 20.8444 47.647C21.1739 47.8337 21.5469 47.9285 21.9529 47.9285C22.3589 47.9285 22.7438 47.8337 23.0812 47.647C23.4186 47.4602 23.6915 47.1908 23.8892 46.8453C24.0869 46.4998 24.1871 46.0956 24.1871 45.6434C24.1871 45.1911 24.0896 44.7869 23.8971 44.4454C23.7034 44.1026 23.4371 43.8358 23.1049 43.6517ZM23.1933 46.5171C23.0575 46.7546 22.8782 46.9346 22.6607 47.0534C22.4419 47.1721 22.2034 47.2321 21.9542 47.2321C21.7051 47.2321 21.4718 47.1734 21.2636 47.0574C21.0553 46.9413 20.8866 46.7639 20.7627 46.5264C20.6375 46.289 20.5742 45.9915 20.5742 45.6447C20.5742 45.2979 20.6388 45.0084 20.7666 44.7709C20.8945 44.5335 21.0645 44.3547 21.2754 44.24C21.4876 44.124 21.7236 44.0653 21.978 44.0653C22.2324 44.0653 22.463 44.124 22.6766 44.24C22.8901 44.3561 23.0654 44.5348 23.1972 44.7709C23.3303 45.0084 23.3976 45.3032 23.3976 45.6447C23.3976 45.9862 23.329 46.281 23.1946 46.5184" fill="white"/>
<path d="M27.4863 45.6019C27.2925 45.5205 27.0381 45.4351 26.7297 45.3511C26.4872 45.2831 26.2947 45.2204 26.1563 45.1657C26.0219 45.1123 25.9098 45.0389 25.8215 44.9496C25.7358 44.8642 25.6937 44.7521 25.6937 44.6187C25.6937 44.448 25.7635 44.3133 25.9085 44.2079C26.0548 44.1011 26.2539 44.0465 26.503 44.0465C26.7719 44.0465 26.988 44.1132 27.1462 44.2452C27.3031 44.3773 27.3914 44.5534 27.4059 44.7708L27.4085 44.8002H28.1836V44.7668C28.1612 44.3359 27.999 43.9931 27.6998 43.745C27.4019 43.4982 27.0078 43.3728 26.528 43.3728C26.217 43.3728 25.9362 43.4288 25.6924 43.5382C25.4472 43.6489 25.2561 43.7997 25.1229 43.9891C24.9885 44.1785 24.9213 44.3906 24.9213 44.6187C24.9213 44.9055 24.9964 45.1403 25.144 45.3177C25.2903 45.4925 25.4683 45.6259 25.6726 45.7153C25.8743 45.8033 26.1392 45.89 26.4568 45.9754C26.8035 46.0648 27.0619 46.1555 27.2266 46.2462C27.3848 46.3329 27.4612 46.4636 27.4612 46.6437C27.4612 46.8238 27.3887 46.9625 27.2385 47.0799C27.0882 47.1973 26.8773 47.256 26.6137 47.256C26.329 47.256 26.0957 47.188 25.9217 47.0559C25.749 46.9252 25.6515 46.7531 25.6317 46.5463L25.6291 46.5183H24.8316V46.5517C24.8501 46.8211 24.9358 47.0639 25.09 47.2707C25.2442 47.4774 25.4564 47.6415 25.7227 47.7562C25.9863 47.871 26.2895 47.9297 26.6203 47.9297C26.9314 47.9297 27.2121 47.8736 27.452 47.7642C27.6945 47.6535 27.8843 47.5001 28.0175 47.3054C28.1506 47.1106 28.2191 46.8878 28.2191 46.6437C28.2139 46.3729 28.1387 46.1501 27.9964 45.9807C27.8553 45.814 27.684 45.6872 27.4863 45.6032" fill="white"/>
<path d="M30.0935 42.3497H29.3184V43.4449H28.7622V44.1026H29.3184V46.6358C29.3184 47.0667 29.4226 47.3815 29.6269 47.5709C29.8299 47.7603 30.1383 47.8564 30.5416 47.8564H31.2152V47.184H30.6589C30.4494 47.184 30.3004 47.1427 30.2174 47.0613C30.1357 46.9813 30.0935 46.8372 30.0935 46.6344V44.1012H31.2152V43.4436H30.0935V42.3484V42.3497Z" fill="white"/>
<path d="M32.7916 43.4448H32.0166V47.8563H32.7916V43.4448Z" fill="white"/>
<path d="M32.416 41.7546C32.2723 41.7546 32.1484 41.8053 32.0496 41.9067C31.9507 42.0081 31.8993 42.1322 31.8993 42.2776C31.8993 42.423 31.9494 42.5484 32.0496 42.6484C32.1497 42.7498 32.2723 42.8005 32.416 42.8005C32.5597 42.8005 32.6743 42.7498 32.7719 42.6484C32.8681 42.547 32.9182 42.423 32.9182 42.2776C32.9182 42.1322 32.8694 42.0081 32.7719 41.9067C32.6743 41.8053 32.5557 41.7546 32.416 41.7546Z" fill="white"/>
<path d="M36.0711 43.3662C35.7745 43.3662 35.5003 43.4289 35.2538 43.5516C35.0377 43.6597 34.8584 43.8091 34.7213 43.9958V43.4449H33.9463V47.8564H34.7213V45.4205C34.7213 44.975 34.8307 44.6335 35.0456 44.4014C35.2604 44.1706 35.5557 44.0545 35.9208 44.0545C36.2859 44.0545 36.5693 44.1679 36.7776 44.3907C36.9858 44.6135 37.0913 44.9416 37.0913 45.3658V47.8577H37.8584V45.2631C37.8584 44.6535 37.6923 44.1799 37.3628 43.8558C37.0346 43.5316 36.5996 43.3675 36.0711 43.3675" fill="white"/>
<path d="M42.3373 44.1585C42.2002 43.9477 42.0065 43.7677 41.76 43.6236C41.4766 43.4568 41.1431 43.3728 40.7674 43.3728C40.3918 43.3728 40.028 43.4675 39.713 43.6543C39.3979 43.841 39.1475 44.1092 38.9682 44.448C38.789 44.7868 38.698 45.1857 38.698 45.6339C38.698 46.0821 38.789 46.4756 38.9682 46.8225C39.1475 47.1693 39.3979 47.4441 39.713 47.6362C40.028 47.8283 40.3826 47.9257 40.7674 47.9257C41.1523 47.9257 41.4753 47.8389 41.756 47.6669C42.0012 47.5175 42.1963 47.332 42.3373 47.1159V47.919C42.3373 48.3579 42.2147 48.7034 41.9735 48.9448C41.7323 49.1863 41.4159 49.309 41.0337 49.309C40.6963 49.309 40.4036 49.2289 40.1638 49.0715C39.9252 48.9155 39.7657 48.706 39.6906 48.4499L39.684 48.4272H38.9195L38.9247 48.4632C38.9933 48.9355 39.2226 49.313 39.6036 49.5878C39.9832 49.8599 40.4643 49.9986 41.0324 49.9986C41.4489 49.9986 41.8193 49.9093 42.133 49.7332C42.448 49.5558 42.6932 49.3076 42.8632 48.9942C43.0319 48.682 43.1176 48.3205 43.1176 47.9203V43.4448H42.3347V44.1585H42.3373ZM42.1449 46.489C42.017 46.7291 41.843 46.9145 41.6268 47.0399C41.4107 47.1666 41.1681 47.2307 40.9085 47.2307C40.6488 47.2307 40.4089 47.1666 40.1941 47.0412C39.9805 46.9145 39.8079 46.7291 39.68 46.4903C39.5522 46.2502 39.4876 45.962 39.4876 45.6352C39.4876 45.3084 39.5522 45.0309 39.68 44.7935C39.8079 44.556 39.9805 44.3733 40.1941 44.2506C40.4076 44.1265 40.6488 44.0638 40.9085 44.0638C41.1681 44.0638 41.4094 44.1278 41.6268 44.2546C41.843 44.3813 42.017 44.5654 42.1449 44.8028C42.2727 45.0403 42.3373 45.3244 42.3373 45.6446C42.3373 45.9647 42.2727 46.2502 42.1449 46.4916" fill="white"/>
<path d="M49.8597 44.6909H47.1365V42.2617H46.3615V47.8564H47.1365V45.3485H49.8597V47.8564H50.6347V42.2617H49.8597V44.6909Z" fill="white"/>
<path d="M52.1875 41.7546C52.0438 41.7546 51.9199 41.8053 51.821 41.9067C51.7222 42.0081 51.6708 42.1322 51.6708 42.2776C51.6708 42.423 51.7209 42.5484 51.821 42.6484C51.9212 42.7498 52.0438 42.8005 52.1875 42.8005C52.3311 42.8005 52.4458 42.7498 52.5434 42.6484C52.6396 42.547 52.6897 42.423 52.6897 42.2776C52.6897 42.1322 52.6409 42.0081 52.5434 41.9067C52.4458 41.8053 52.3272 41.7546 52.1875 41.7546Z" fill="white"/>
<path d="M52.5631 43.4448H51.7881V47.8563H52.5631V43.4448Z" fill="white"/>
<path d="M57.0908 44.1585C56.9537 43.9477 56.76 43.7677 56.5135 43.6236C56.2301 43.4568 55.8966 43.3728 55.521 43.3728C55.1453 43.3728 54.7815 43.4675 54.4665 43.6543C54.1514 43.841 53.901 44.1092 53.7218 44.448C53.5425 44.7868 53.4515 45.1857 53.4515 45.6339C53.4515 46.0821 53.5425 46.4756 53.7218 46.8225C53.901 47.1693 54.1514 47.4441 54.4665 47.6362C54.7815 47.8283 55.1361 47.9257 55.521 47.9257C55.9058 47.9257 56.2288 47.8389 56.5095 47.6669C56.7547 47.5175 56.9498 47.332 57.0908 47.1159V47.919C57.0908 48.3579 56.9682 48.7034 56.727 48.9448C56.4858 49.1863 56.1695 49.309 55.7872 49.309C55.4498 49.309 55.1572 49.2289 54.9173 49.0715C54.6787 48.9155 54.5192 48.706 54.4441 48.4499L54.4375 48.4272H53.673L53.6783 48.4632C53.7468 48.9355 53.9761 49.313 54.3571 49.5878C54.7367 49.8599 55.2178 49.9986 55.7859 49.9986C56.2024 49.9986 56.5728 49.9093 56.8865 49.7332C57.2015 49.5558 57.4467 49.3076 57.6167 48.9942C57.7854 48.682 57.8711 48.3205 57.8711 47.9203V43.4448H57.0882V44.1585H57.0908ZM56.8984 46.489C56.7705 46.7291 56.5965 46.9145 56.3804 47.0399C56.1642 47.1666 55.9217 47.2307 55.662 47.2307C55.4023 47.2307 55.1624 47.1666 54.9476 47.0412C54.734 46.9145 54.5614 46.7291 54.4335 46.4903C54.3057 46.2502 54.2411 45.962 54.2411 45.6352C54.2411 45.3084 54.3057 45.0309 54.4335 44.7935C54.5614 44.556 54.734 44.3733 54.9476 44.2506C55.1611 44.1265 55.4023 44.0638 55.662 44.0638C55.9217 44.0638 56.1629 44.1278 56.3804 44.2546C56.5965 44.3813 56.7705 44.5654 56.8984 44.8028C57.0262 45.0403 57.0908 45.3244 57.0908 45.6446C57.0908 45.9647 57.0262 46.2502 56.8984 46.4916" fill="white"/>
<path d="M62.0758 43.5795C61.8109 43.4381 61.5104 43.3661 61.1835 43.3661C60.8566 43.3661 60.5864 43.4288 60.3346 43.5515C60.1145 43.6596 59.9326 43.809 59.7942 43.997V41.9214H59.0192V47.8576H59.7942V45.4217C59.7942 44.9762 59.9036 44.6334 60.1185 44.4026C60.3333 44.1718 60.6286 44.0557 60.9937 44.0557C61.3588 44.0557 61.6422 44.1691 61.8504 44.3919C62.0574 44.6147 62.1628 44.9428 62.1628 45.367V47.8589H62.93V45.2643C62.93 44.8588 62.8535 44.5093 62.7032 44.2252C62.5517 43.9397 62.3408 43.7236 62.0745 43.5822" fill="white"/>
<path d="M67.0253 43.6477C66.7089 43.4663 66.3386 43.3743 65.9273 43.3743C65.5161 43.3743 65.1272 43.4676 64.803 43.6517C64.4774 43.8358 64.2217 44.104 64.0424 44.4454C63.8632 44.7869 63.7722 45.1898 63.7722 45.6434C63.7722 46.0969 63.8658 46.4998 64.0503 46.8453C64.2349 47.1908 64.4945 47.4602 64.8188 47.647C65.143 47.8337 65.5161 47.9285 65.9286 47.9285C66.4453 47.9285 66.8842 47.7937 67.2335 47.5296C67.5828 47.2641 67.8188 46.916 67.9348 46.4931L67.9453 46.4531H67.1149L67.1083 46.4744C67.0266 46.7105 66.8842 46.9013 66.6839 47.0427C66.4835 47.1841 66.2291 47.2548 65.9286 47.2548C65.5609 47.2548 65.2445 47.1361 64.9888 46.9013C64.7384 46.6732 64.596 46.3544 64.5657 45.9515H67.9954L67.998 45.9235C68.0139 45.7701 68.0218 45.622 68.0218 45.4833C68.0218 45.0831 67.9348 44.7189 67.7634 44.4014C67.5907 44.0826 67.3429 43.8292 67.0266 43.6477M64.5749 45.3032C64.6158 44.9163 64.7582 44.6082 64.9967 44.3881C65.2432 44.1613 65.5464 44.0466 65.8983 44.0466C66.1435 44.0466 66.3702 44.0973 66.5705 44.1987C66.7709 44.2987 66.9317 44.4468 67.0477 44.6389C67.1597 44.8243 67.219 45.0471 67.223 45.3019H64.5736L64.5749 45.3032Z" fill="white"/>
<path d="M70.1676 43.5755C69.9647 43.6956 69.7999 43.8597 69.676 44.0638V43.4448H68.9009V47.8562H69.676V45.4604C69.676 44.5947 70.0582 44.1731 70.8451 44.1731H71.0639V43.3647H71.0336C70.6949 43.3647 70.4036 43.4354 70.1676 43.5755Z" fill="white"/>
<path d="M76.4286 42.2937H75.5626L73.5788 47.815L73.5643 47.8564H74.3829L74.8218 46.6264H77.1627L77.6017 47.8564H78.4202L76.4365 42.315L76.4299 42.2937H76.4286ZM75.0472 45.9768L75.9923 43.3062L76.9373 45.9768H75.0485H75.0472Z" fill="white"/>
<path d="M82.3046 45.8648C82.3046 46.309 82.1966 46.6518 81.983 46.8826C81.7708 47.1134 81.4742 47.2294 81.1039 47.2294C80.7335 47.2294 80.4554 47.116 80.2471 46.8946C80.0388 46.6718 79.9334 46.3463 79.9334 45.9275V43.4436H79.1663V46.0222C79.1663 46.4277 79.2454 46.7772 79.4022 47.0613C79.5591 47.3455 79.7752 47.5629 80.0454 47.7043C80.3156 47.8457 80.6241 47.9191 80.9615 47.9191C81.2568 47.9191 81.5322 47.8551 81.7787 47.7297C81.9936 47.6189 82.1702 47.4695 82.3033 47.2841V47.8564H83.0784V43.4449H82.3033V45.8648H82.3046Z" fill="white"/>
<path d="M85.1583 42.3497H84.3833V43.4449H83.827V44.1026H84.3833V46.6358C84.3833 47.0667 84.4874 47.3815 84.6917 47.5709C84.8947 47.7603 85.2031 47.8564 85.6065 47.8564H86.28V47.184H85.7238C85.5142 47.184 85.3653 47.1427 85.2822 47.0613C85.2005 46.9813 85.1583 46.8372 85.1583 46.6344V44.1012H86.28V43.4436H85.1583V42.3484V42.3497Z" fill="white"/>
<path d="M90.1381 43.5795C89.8732 43.4381 89.5726 43.3661 89.2457 43.3661C88.9189 43.3661 88.6486 43.4288 88.3969 43.5515C88.1768 43.6596 87.9949 43.809 87.8565 43.997V41.9214H87.0814V47.8576H87.8565V45.4217C87.8565 44.9762 87.9659 44.6334 88.1807 44.4026C88.3956 44.1718 88.6908 44.0557 89.0559 44.0557C89.421 44.0557 89.7044 44.1691 89.9127 44.3919C90.1196 44.6147 90.2251 44.9428 90.2251 45.367V47.8589H90.9922V45.2643C90.9922 44.8588 90.9158 44.5093 90.7655 44.2252C90.6139 43.9397 90.403 43.7236 90.1368 43.5822" fill="white"/>
<path d="M95.1574 43.6517C94.8252 43.4676 94.4483 43.3743 94.037 43.3743C93.6258 43.3743 93.2501 43.4676 92.9166 43.6517C92.5832 43.8358 92.3169 44.104 92.1245 44.4495C91.932 44.7936 91.8345 45.1951 91.8345 45.6434C91.8345 46.0916 91.9294 46.4998 92.1165 46.8453C92.3037 47.1908 92.5673 47.4602 92.8969 47.647C93.2264 47.8337 93.5994 47.9285 94.0054 47.9285C94.4114 47.9285 94.7962 47.8337 95.1337 47.647C95.4711 47.4602 95.744 47.1908 95.9417 46.8453C96.1394 46.4998 96.2396 46.0956 96.2396 45.6434C96.2396 45.1911 96.142 44.7869 95.9496 44.4454C95.7558 44.1026 95.4896 43.8358 95.1574 43.6517ZM95.2457 46.5171C95.1099 46.7546 94.9307 46.9346 94.7132 47.0534C94.4944 47.1721 94.2558 47.2321 94.0067 47.2321C93.7576 47.2321 93.5243 47.1734 93.316 47.0574C93.1078 46.9413 92.939 46.7639 92.8151 46.5264C92.6899 46.289 92.6267 45.9915 92.6267 45.6447C92.6267 45.2979 92.6912 45.0084 92.8191 44.7709C92.947 44.5335 93.117 44.3547 93.3279 44.24C93.5401 44.124 93.776 44.0653 94.0317 44.0653C94.2875 44.0653 94.5168 44.124 94.7303 44.24C94.9439 44.3561 95.1192 44.5348 95.251 44.7709C95.3841 45.0084 95.4513 45.3032 95.4513 45.6447C95.4513 45.9862 95.3828 46.281 95.2483 46.5184" fill="white"/>
<path d="M98.3868 43.5755C98.1838 43.6956 98.0191 43.8597 97.8952 44.0638V43.4448H97.1201V47.8562H97.8952V45.4604C97.8952 44.5947 98.2774 44.1731 99.0643 44.1731H99.2831V43.3647H99.2528C98.914 43.3647 98.6227 43.4354 98.3868 43.5755Z" fill="white"/>
<path d="M100.82 43.4448H100.045V47.8563H100.82V43.4448Z" fill="white"/>
<path d="M100.444 41.7546C100.301 41.7546 100.177 41.8053 100.078 41.9067C99.979 42.0081 99.9276 42.1322 99.9276 42.2776C99.9276 42.423 99.9777 42.5484 100.078 42.6484C100.178 42.7498 100.301 42.8005 100.444 42.8005C100.588 42.8005 100.703 42.7498 100.8 42.6484C100.896 42.547 100.946 42.423 100.946 42.2776C100.946 42.1322 100.898 42.0081 100.8 41.9067C100.703 41.8053 100.584 41.7546 100.444 41.7546Z" fill="white"/>
<path d="M102.907 42.3497H102.131V43.4449H101.575V44.1026H102.131V46.6358C102.131 47.0667 102.236 47.3815 102.44 47.5709C102.643 47.7603 102.951 47.8564 103.355 47.8564H104.028V47.184H103.472C103.262 47.184 103.113 47.1427 103.03 47.0613C102.949 46.9813 102.907 46.8372 102.907 46.6344V44.1012H104.028V43.4436H102.907V42.3484V42.3497Z" fill="white"/>
<path d="M106.492 46.9145L105.171 43.4648L105.163 43.4448H104.305L106.05 47.7776L105.191 49.9039H105.995L108.59 43.4875L108.607 43.4448H107.803L106.492 46.9145Z" fill="white"/>
<path d="M108.607 19.8201H107.922V25.8723H108.607V19.8201Z" fill="white"/>
<path d="M68.2761 25.8711H80.5186C81.382 25.8711 82.0859 25.1601 82.0859 24.285V19.8188H81.4004V24.285C81.4004 24.7772 81.005 25.1774 80.5186 25.1774H78.0037L79.3534 22.4361V21.553H74.9062V22.4334L76.2019 25.1774H73.0872V19.8188H72.4018V25.1774H70.4207V21.629H69.7353V25.1774H68.2761C67.7898 25.1774 67.3943 24.7772 67.3943 24.285V19.8188H66.7089V24.285C66.7089 25.1587 67.4115 25.8711 68.2761 25.8711ZM75.5929 22.2467H78.668L77.2682 25.1094H76.9334L75.5929 22.2467Z" fill="white"/>
<path d="M63.9291 24.2862V19.8201H63.2437V24.2862C63.2437 24.7784 62.8482 25.1786 62.3619 25.1786H62.2683L61.082 20.7819L60.3676 20.7765L61.5552 25.1786H59.7296V25.8723H62.3605C63.2252 25.8723 63.9278 25.1613 63.9278 24.2862" fill="white"/>
<path d="M40.0649 25.8712H57.1277C57.9923 25.8712 58.6949 25.1602 58.6949 24.2851V21.6292H58.0095V24.2851C58.0095 24.7773 57.614 25.1775 57.1277 25.1775H55.9954V22.1241H55.31V25.1775H53.3948V22.1241H52.7094V25.1775H50.441V21.6292H49.7556V25.1775H47.2683C47.6308 24.4745 47.694 23.5914 47.3922 22.8658C47.0719 22.0934 46.3997 21.6492 45.5508 21.6492C43.8531 21.6492 42.6325 22.8684 41.9023 23.9049V22.3895H41.2169V25.0601C41.1958 25.1042 41.1774 25.1428 41.1616 25.1762H40.0662C39.5798 25.1762 39.1844 24.776 39.1844 24.2838V19.8176H38.499V24.2838C38.499 25.1575 39.2015 25.8699 40.0662 25.8699M45.5508 22.3415C46.2797 22.3415 46.6106 22.7724 46.7608 23.1326C47.031 23.7835 46.8913 24.6333 46.4458 25.1762H41.9313C42.4032 24.2904 43.658 22.3415 45.5508 22.3415Z" fill="white"/>
<path d="M84.146 19.8201H83.4606V25.8723H84.146V19.8201Z" fill="white"/>
<path d="M105.86 19.8201V24.2862C105.86 24.7784 105.465 25.1786 104.979 25.1786H104.105V24.6851C104.105 22.6334 102.924 21.6369 100.494 21.6369H99.3107V22.3306H100.494C103.073 22.3306 103.419 23.5205 103.419 24.6851V25.1786H102.421V24.8972C102.421 23.6846 101.505 23.1323 100.655 23.1323C99.805 23.1323 98.7848 23.6232 98.7848 25.0092V25.1786H97.1319V21.6303H96.4465V25.1786H93.9026V21.6303H93.2172V25.1786H92.7941H90.6851V21.6409H89.1271C87.7589 21.6409 86.8666 22.4867 86.8666 23.7753C86.8666 25.0639 87.7589 25.871 89.1271 25.871H89.1284L89.1218 25.8736H104.979C105.842 25.8736 106.546 25.1626 106.546 24.2875V19.8214H105.86V19.8201ZM87.5494 23.774C87.5494 22.8509 88.1188 22.3319 89.1258 22.3319H89.9997V25.1773H89.1258C88.1188 25.1773 87.5494 24.6771 87.5494 23.774ZM101.736 25.1786H99.4702V25.0092C99.4702 23.9407 100.299 23.826 100.657 23.826C100.837 23.826 101.737 23.878 101.737 24.8972V25.1786H101.736Z" fill="white"/>
<path d="M94.4325 20.3431H93.5638C93.5665 19.9656 93.6047 19.8082 94.2242 19.8082V19.2266C93.063 19.2266 92.9931 19.9136 92.9891 20.3431H92.6899V20.9247H94.4325V20.3431Z" fill="white"/>
<path d="M97.4536 26.9316C97.3191 26.9316 97.2044 26.9797 97.1108 27.073C97.0186 27.1678 96.9711 27.2838 96.9711 27.4199C96.9711 27.5559 97.0186 27.672 97.1108 27.7667C97.2044 27.8614 97.3191 27.9081 97.4536 27.9081C97.588 27.9081 97.6948 27.8601 97.7844 27.7654C97.8753 27.6707 97.9202 27.5546 97.9202 27.4199C97.9202 27.2851 97.874 27.1678 97.7844 27.073C97.6934 26.9783 97.5827 26.9316 97.4536 26.9316Z" fill="white"/>
<path d="M96.1895 26.9316C96.055 26.9316 95.9403 26.9797 95.8467 27.073C95.7545 27.1678 95.707 27.2838 95.707 27.4199C95.707 27.5559 95.7545 27.672 95.8467 27.7667C95.9403 27.8614 96.055 27.9081 96.1895 27.9081C96.3239 27.9081 96.4307 27.8601 96.5203 27.7654C96.6113 27.6707 96.6561 27.5546 96.6561 27.4199C96.6561 27.2851 96.6099 27.1678 96.5203 27.073C96.4294 26.9783 96.3186 26.9316 96.1895 26.9316Z" fill="white"/>
<path d="M70.6988 26.9248C70.5644 26.9248 70.4497 26.9755 70.3575 27.0702C70.2652 27.1649 70.219 27.2823 70.2204 27.4184C70.2204 27.5544 70.2705 27.6705 70.364 27.7639C70.4576 27.8573 70.5736 27.9039 70.7081 27.9026C70.8372 27.9026 70.948 27.8533 71.0376 27.7572C71.1272 27.6625 71.172 27.5451 71.1707 27.4104C71.1694 27.2756 71.1219 27.1596 71.031 27.0649C70.9387 26.9715 70.828 26.9248 70.6988 26.9261" fill="white"/>
<path d="M69.4361 26.937C69.3016 26.937 69.187 26.9877 69.0947 27.0824C69.0024 27.1771 68.9563 27.2945 68.9576 27.4306C68.9576 27.5666 69.0077 27.6827 69.1013 27.7761C69.1949 27.8695 69.3109 27.9161 69.4453 27.9148C69.5745 27.9148 69.6852 27.8655 69.7748 27.7694C69.8645 27.6747 69.9093 27.5573 69.908 27.4226C69.9066 27.2878 69.8592 27.1718 69.7682 27.0771C69.676 26.9837 69.5653 26.937 69.4361 26.9383" fill="white"/>
<path d="M90.2449 19.7896C90.1104 19.7896 89.9958 19.8376 89.9022 19.931C89.8099 20.0257 89.7625 20.1417 89.7625 20.2778C89.7625 20.4138 89.8099 20.5299 89.9022 20.6246C89.9958 20.7193 90.1104 20.766 90.2449 20.766C90.3793 20.766 90.4861 20.718 90.5757 20.6233C90.6667 20.5286 90.7115 20.4125 90.7115 20.2778C90.7115 20.1431 90.6653 20.0257 90.5757 19.931C90.4848 19.8362 90.374 19.7896 90.2449 19.7896Z" fill="white"/>
<path d="M88.9808 19.7896C88.8464 19.7896 88.7317 19.8376 88.6381 19.931C88.5459 20.0257 88.4984 20.1417 88.4984 20.2778C88.4984 20.4138 88.5459 20.5299 88.6381 20.6246C88.7317 20.7193 88.8464 20.766 88.9808 20.766C89.1153 20.766 89.2221 20.718 89.3117 20.6233C89.4026 20.5286 89.4474 20.4125 89.4474 20.2778C89.4474 20.1431 89.4013 20.0257 89.3117 19.931C89.2207 19.8362 89.11 19.7896 88.9808 19.7896Z" fill="white"/>
<path d="M50.7455 19.584C50.611 19.584 50.4963 19.6347 50.4041 19.7294C50.3118 19.8241 50.2657 19.9415 50.267 20.0776C50.267 20.2136 50.3171 20.3297 50.4107 20.4231C50.5043 20.5164 50.6202 20.5631 50.7547 20.5618C50.8891 20.5605 50.9946 20.5124 51.0842 20.4164C51.1738 20.3217 51.2187 20.2043 51.2173 20.0696C51.2173 19.9348 51.1686 19.8188 51.0776 19.7241C50.9854 19.6307 50.8746 19.584 50.7455 19.5853" fill="white"/>
<path d="M49.4814 19.5962C49.3469 19.5962 49.2322 19.6469 49.14 19.7416C49.0477 19.8363 49.0016 19.9537 49.0029 20.0898C49.0029 20.2258 49.053 20.3419 49.1466 20.4353C49.2402 20.5286 49.3561 20.5753 49.4906 20.574C49.6198 20.574 49.7305 20.5246 49.8201 20.4286C49.9097 20.3339 49.9546 20.2165 49.9532 20.0818C49.9519 19.947 49.9045 19.831 49.8135 19.7363C49.7213 19.6429 49.6105 19.5962 49.4814 19.5975" fill="white"/>
<path d="M31.1216 19.584C30.9871 19.584 30.8725 19.6347 30.7802 19.7294C30.6879 19.8241 30.6418 19.9415 30.6431 20.0776C30.6431 20.2136 30.6932 20.3297 30.7868 20.4231C30.8804 20.5164 30.9964 20.5631 31.1308 20.5618C31.2653 20.5605 31.3707 20.5124 31.4603 20.4164C31.55 20.3217 31.5948 20.2043 31.5935 20.0696C31.5935 19.9348 31.5447 19.8188 31.4538 19.7241C31.3615 19.6307 31.2508 19.584 31.1216 19.5853" fill="white"/>
<path d="M29.8589 19.5962C29.7244 19.5962 29.6097 19.6469 29.5175 19.7416C29.4252 19.8363 29.3791 19.9537 29.3804 20.0898C29.3804 20.2258 29.4305 20.3419 29.5241 20.4353C29.6177 20.5286 29.7337 20.5753 29.8681 20.574C29.9973 20.574 30.108 20.5246 30.1976 20.4286C30.2873 20.3339 30.3321 20.2165 30.3307 20.0818C30.3307 19.947 30.282 19.831 30.191 19.7363C30.0988 19.6429 29.988 19.5962 29.8589 19.5975" fill="white"/>
<path d="M43.7569 19.5962C43.6224 19.5962 43.5078 19.6469 43.4155 19.7416C43.3232 19.8363 43.2771 19.9537 43.2784 20.0898C43.2784 20.2258 43.3285 20.3419 43.4221 20.4353C43.5157 20.5286 43.6317 20.5753 43.7661 20.574C43.8953 20.574 44.006 20.5246 44.0956 20.4286C44.1853 20.3339 44.2301 20.2165 44.2288 20.0818C44.2288 19.947 44.18 19.831 44.089 19.7363C43.9968 19.6429 43.8861 19.5962 43.7569 19.5975" fill="white"/>
<path d="M35.5728 19.5962C35.4384 19.5962 35.3237 19.6469 35.2314 19.7416C35.1392 19.8363 35.093 19.9537 35.0944 20.0898C35.0944 20.2258 35.1444 20.3419 35.238 20.4353C35.3316 20.5286 35.4476 20.5753 35.5821 20.574C35.7112 20.574 35.8219 20.5246 35.9116 20.4286C36.0012 20.3339 36.046 20.2165 36.0447 20.0818C36.0447 19.947 35.9959 19.831 35.905 19.7363C35.8127 19.6429 35.702 19.5962 35.5728 19.5975" fill="white"/>
<path d="M37.3971 23.7542C37.3971 22.3122 36.6181 21.4277 35.4028 21.4277C34.1875 21.4277 33.3321 22.3122 33.3321 23.7542C33.3321 24.2931 33.4454 24.7733 33.6735 25.1775H31.5645V21.6398H30.0065C28.6383 21.6398 27.746 22.4856 27.746 23.7742C27.746 25.0628 28.6383 25.8699 30.0065 25.8699H35.5728C36.713 25.8699 37.3971 25.0815 37.3971 23.7555V23.7542ZM30.8804 22.3308V25.1762H30.0065C28.9995 25.1762 28.4301 24.676 28.4301 23.7729C28.4301 22.8698 28.9995 22.3308 30.0065 22.3308H30.8804ZM35.5728 25.1762H34.5658C34.2244 24.9067 34.0148 24.4065 34.0148 23.7528C34.0148 22.715 34.5474 22.1187 35.4015 22.1187C36.1423 22.1187 36.713 22.8111 36.713 23.7528C36.713 24.6373 36.3136 25.1762 35.5728 25.1762Z" fill="white"/>
<path d="M106.077 33.1959C105.901 33.1011 105.718 33.0024 105.53 32.8984L108.609 31.2456V30.4292L104.844 32.4915V33.3079L105.021 33.4066C105.276 33.5507 105.522 33.6828 105.756 33.8082C106.413 34.1617 106.981 34.4671 107.385 34.83C107.714 35.1235 107.722 35.5223 107.619 35.7971C107.513 36.0786 107.24 36.3801 106.79 36.3801H103.932C103.446 36.3801 103.05 35.9799 103.05 35.4876V31.5764H102.365V35.4876C102.365 36.3614 103.067 37.0737 103.932 37.0737H106.79C107.449 37.0737 108.026 36.6695 108.261 36.0426C108.495 35.4156 108.334 34.7513 107.84 34.3097C107.374 33.8922 106.774 33.5694 106.079 33.1959" fill="white"/>
<path d="M95.5528 37.0752H99.4135C100.277 37.0752 100.981 36.3642 100.981 35.4891V32.8745H100.295V35.4891C100.295 35.9813 99.8999 36.3815 99.4135 36.3815H98.2734V33.3281H97.588V36.3815H95.6675C95.6688 36.3402 95.6728 36.3015 95.6728 36.2601V33.3294H94.9874V36.2601C94.9874 37.458 94.0621 38.0863 93.1486 38.0863C92.6978 38.0863 92.2853 37.9316 91.9887 37.6501C91.65 37.3286 91.4707 36.8484 91.4707 36.2615V35.369H90.7853V36.2615C90.7853 37.0458 91.0397 37.7008 91.5208 38.157C91.9452 38.5586 92.5238 38.7813 93.1499 38.7813C94.1517 38.7813 95.2035 38.1891 95.5528 37.0779" fill="white"/>
<path d="M86.2761 35.4891V31.0229H85.5907V35.4891C85.5907 35.9813 85.1952 36.3815 84.7089 36.3815H82.1386L83.4633 33.6896V32.8065H79.016V33.6869L80.288 36.3815H77.9101C77.4237 36.3815 77.0283 35.9813 77.0283 35.4891V31.0229H76.3429V35.4891C76.3429 36.3642 77.0454 37.0752 77.9101 37.0752H84.7075C85.5722 37.0752 86.2748 36.3642 86.2748 35.4891M81.0419 36.3628L79.7014 33.5001H82.7765L81.3767 36.3628H81.0419Z" fill="white"/>
<path d="M88.3376 31.0229H87.6522V37.0752H88.3376V31.0229Z" fill="white"/>
<path d="M46.4814 35.2997C46.8109 34.9848 47.1101 34.614 47.3685 34.1978C47.6295 33.7803 47.7613 33.3427 47.7613 32.8998C47.7613 32.3649 47.5978 31.938 47.2775 31.6312C46.9572 31.3258 46.5183 31.1697 45.9739 31.1697C45.4296 31.1697 44.9972 31.3351 44.6585 31.6632C44.3197 31.9901 44.1365 32.4596 44.1154 33.0572V33.0893H44.8654V33.0599C44.8812 32.6931 44.9867 32.3969 45.1765 32.1782C45.365 31.9607 45.6365 31.8513 45.9805 31.8513C46.3245 31.8513 46.5947 31.9474 46.7529 32.1381C46.9124 32.3302 46.9928 32.597 46.9928 32.9319C46.9928 33.2894 46.8636 33.6575 46.6092 34.0297C46.3535 34.4046 46.0346 34.7687 45.6615 35.1116C45.2885 35.4544 44.7639 35.9013 44.1022 36.4402L44.0904 36.4495V37.0111H47.9234V36.3455H45.2819C45.763 35.9506 46.1664 35.5985 46.4788 35.2997" fill="white"/>
<path d="M50.6953 31.187C49.9559 31.187 49.4287 31.4498 49.1321 31.9687C48.8382 32.4823 48.6892 33.204 48.6892 34.1151C48.6892 35.0262 48.8382 35.7745 49.1321 36.2895C49.43 36.811 49.9559 37.0752 50.6953 37.0752C51.4348 37.0752 51.9541 36.811 52.252 36.2895C52.546 35.7732 52.6949 35.0422 52.6949 34.1151C52.6949 33.188 52.546 32.481 52.252 31.9687C51.9541 31.4498 51.4308 31.187 50.6967 31.187M51.8395 35.3077C51.7801 35.6238 51.6589 35.8799 51.4783 36.0694C51.299 36.2574 51.0367 36.3535 50.6967 36.3535C50.3566 36.3535 50.0864 36.2574 49.9071 36.0694C49.7266 35.8786 49.6053 35.6225 49.546 35.3077C49.4867 34.9888 49.4563 34.5886 49.4563 34.1151C49.4563 33.6415 49.4867 33.2667 49.546 32.9505C49.6053 32.6384 49.7266 32.3823 49.9071 32.1928C50.0864 32.0034 50.3513 31.9087 50.6967 31.9087C51.042 31.9087 51.3004 32.0047 51.4783 32.1928C51.6589 32.3836 51.7801 32.6384 51.8395 32.9505C51.8988 33.268 51.9291 33.6602 51.9291 34.1151C51.9291 34.57 51.8988 34.9888 51.8395 35.3077Z" fill="white"/>
<path d="M54.1185 36.6669C54.4783 36.9644 54.9436 37.1138 55.5025 37.1138C55.8874 37.1138 56.2222 37.0431 56.4963 36.9044C56.7731 36.7643 56.9827 36.5696 57.1211 36.3241C57.2595 36.08 57.3294 35.8012 57.3294 35.4957C57.3294 35.0889 57.2266 34.7527 57.0249 34.5006C56.8311 34.2578 56.5675 34.0897 56.2406 34.0003C56.5253 33.9256 56.7613 33.7709 56.9418 33.5388C57.1303 33.296 57.2266 33.0039 57.2266 32.6704C57.2266 32.3849 57.158 32.1261 57.0223 31.9007C56.8865 31.6739 56.6848 31.4925 56.4212 31.3617C56.1589 31.231 55.8452 31.1643 55.4867 31.1643C54.9489 31.1643 54.5047 31.3057 54.1646 31.5845C53.8245 31.8646 53.6334 32.2555 53.5965 32.7491L53.5939 32.7824H54.3518L54.3557 32.7557C54.3913 32.4796 54.506 32.2568 54.6984 32.0928C54.8909 31.9287 55.1479 31.846 55.4629 31.846C55.778 31.846 56.0416 31.9287 56.2143 32.0914C56.3869 32.2542 56.4752 32.4729 56.4752 32.7437C56.4752 33.0639 56.3592 33.292 56.1207 33.4441C55.8808 33.5961 55.5196 33.6762 55.0464 33.6815H54.8276V34.3472H55.0385C55.5578 34.3472 55.9506 34.4339 56.2064 34.6046C56.4568 34.7727 56.5846 35.0515 56.5846 35.4357C56.5846 35.7332 56.4911 35.9773 56.3078 36.164C56.1233 36.3508 55.8505 36.4442 55.4946 36.4442C55.1387 36.4442 54.8487 36.3455 54.6365 36.1507C54.423 35.9559 54.2977 35.6998 54.2622 35.3917L54.2595 35.3637H53.5095L53.5122 35.397C53.5543 35.9426 53.7586 36.3708 54.1198 36.6683" fill="white"/>
<path d="M60.962 37.0751H61.7292V35.7972H62.5134V35.1089H61.7292V31.3311H60.8276L58.0648 35.2022L58.0596 35.2103V35.7985H60.962V37.0765V37.0751ZM58.973 35.1089L60.9937 32.2128V35.1089H58.973Z" fill="white"/>
<path d="M5.36466 36.0653L4.14014 31.5031L4.13355 31.4805H3.28734L1.99428 36.084L0.830401 31.5031L0.825129 31.4805H0L1.53954 37.0605L1.54613 37.0832L2.38444 37.0738L3.67881 32.7011L4.92046 37.0525L4.92705 37.0752H5.77327L7.37476 31.4805H6.54172L5.36466 36.0653Z" fill="white"/>
<path d="M11.1208 36.8643C11.4582 36.6775 11.7311 36.4081 11.9288 36.0626C12.1265 35.7184 12.2267 35.3129 12.2267 34.8606C12.2267 34.4084 12.1291 34.0042 11.9367 33.6627C11.7429 33.3199 11.4767 33.0531 11.1445 32.869C10.811 32.6849 10.4354 32.5916 10.0241 32.5916C9.61289 32.5916 9.23591 32.6849 8.90375 32.869C8.57027 33.0531 8.30402 33.3226 8.11158 33.6667C7.91913 34.0109 7.82159 34.4124 7.82159 34.8606C7.82159 35.3089 7.9165 35.7184 8.10367 36.0626C8.29084 36.4081 8.55314 36.6775 8.88398 36.8643C9.21351 37.051 9.58653 37.1457 9.99382 37.1457C10.4011 37.1457 10.7847 37.051 11.1221 36.8643M8.80094 35.7437C8.67572 35.5063 8.61245 35.2088 8.61245 34.862C8.61245 34.5151 8.67704 34.2257 8.8049 33.9882C8.93143 33.7508 9.10279 33.572 9.31368 33.4573C9.52458 33.3412 9.76183 33.2826 10.0162 33.2826C10.2706 33.2826 10.5013 33.3412 10.7161 33.4573C10.9297 33.5734 11.105 33.7521 11.2368 33.9882C11.3699 34.227 11.4371 34.5205 11.4371 34.862C11.4371 35.2035 11.3686 35.4983 11.2328 35.7357C11.0984 35.9732 10.9191 36.1533 10.7003 36.272C10.4815 36.3907 10.2429 36.4507 9.99382 36.4507C9.7447 36.4507 9.5114 36.392 9.30314 36.276C9.09488 36.1599 8.92616 35.9812 8.80226 35.7451" fill="white"/>
<path d="M15.2702 33.3921V32.5837H15.2399C14.9011 32.5837 14.6098 32.6544 14.3739 32.7945C14.1709 32.9146 14.0061 33.0786 13.8822 33.2814V32.6624H13.1072V37.0739H13.8822V34.6781C13.8822 33.8123 14.2645 33.3908 15.0514 33.3908H15.2702V33.3921Z" fill="white"/>
<path d="M16.8071 31.1389H16.032V37.0751H16.8071V31.1389Z" fill="white"/>
<path d="M22.1177 37.0751V31.1389H21.3347V33.368C21.1845 33.1505 20.9788 32.9691 20.7205 32.8291C20.4292 32.6717 20.1102 32.5916 19.7728 32.5916C19.3826 32.5916 19.0241 32.6863 18.7104 32.8731C18.3954 33.0598 18.1449 33.328 17.9657 33.6668C17.7864 34.0056 17.6955 34.4045 17.6955 34.8527C17.6955 35.3009 17.7864 35.6944 17.9657 36.0413C18.1449 36.3881 18.3954 36.6629 18.7104 36.855C19.0254 37.0471 19.38 37.1458 19.7662 37.1458C20.1524 37.1458 20.4727 37.0604 20.7548 36.891C20.9999 36.7429 21.195 36.5575 21.336 36.3374V37.0738H22.119L22.1177 37.0751ZM21.1423 35.7078C21.0144 35.9479 20.8404 36.1333 20.6243 36.2587C20.4081 36.3854 20.1656 36.4495 19.9059 36.4495C19.6463 36.4495 19.4064 36.3854 19.1928 36.2587C18.9793 36.132 18.8066 35.9466 18.6788 35.7078C18.5509 35.4677 18.4863 35.1795 18.4863 34.8527C18.4863 34.5259 18.5509 34.2484 18.6788 34.011C18.8066 33.7735 18.9793 33.5908 19.1928 33.468C19.4064 33.344 19.6462 33.2813 19.9072 33.2813C20.1682 33.2813 20.4081 33.3453 20.6256 33.472C20.8418 33.5988 21.0158 33.7815 21.1436 34.019C21.2715 34.2564 21.336 34.5405 21.336 34.8607C21.336 35.1809 21.2715 35.4663 21.1436 35.7078" fill="white"/>
<path d="M30.4125 35.4436L30.4283 35.4009H29.5096L29.5017 35.4196C29.354 35.7464 29.1366 35.9985 28.8584 36.172C28.579 36.3454 28.2403 36.4334 27.8514 36.4334C27.4626 36.4334 27.1357 36.344 26.8391 36.168C26.5425 35.9919 26.3066 35.7384 26.1366 35.4143C25.9678 35.0901 25.8809 34.7059 25.8809 34.2737C25.8809 33.8415 25.9665 33.4506 26.1366 33.1252C26.3053 32.801 26.5425 32.5475 26.8391 32.3715C27.137 32.1954 27.4771 32.106 27.8514 32.106C28.2258 32.106 28.579 32.1954 28.8584 32.3715C29.1366 32.5475 29.3527 32.8023 29.5017 33.1278L29.5096 33.1452H30.4283L30.4125 33.1038C30.2069 32.5649 29.876 32.1447 29.4279 31.8512C28.9797 31.5577 28.4498 31.4097 27.8501 31.4097C27.34 31.4097 26.8694 31.5337 26.4503 31.7792C26.0311 32.0246 25.6963 32.3688 25.4551 32.8023C25.2126 33.2359 25.09 33.7321 25.09 34.2737C25.09 34.8153 25.2126 35.3102 25.4551 35.7411C25.6976 36.172 26.0324 36.5148 26.4503 36.7562C26.8681 36.999 27.34 37.1217 27.8501 37.1217C28.4498 37.1217 28.9797 36.975 29.4265 36.6842C29.8747 36.3934 30.2055 35.9759 30.4112 35.4436" fill="white"/>
<path d="M34.5104 36.5028V37.075H35.2855V32.6636H34.5104V35.0834C34.5104 35.5289 34.4023 35.8704 34.1888 36.1026C33.9766 36.3333 33.68 36.4494 33.3096 36.4494C32.9393 36.4494 32.6611 36.3373 32.4529 36.1146C32.2459 35.8918 32.1405 35.5663 32.1405 35.1474V32.6636H31.3734V35.2421C31.3734 35.6477 31.4524 35.9972 31.608 36.2813C31.7648 36.5654 31.981 36.7829 32.2525 36.9243C32.5227 37.0657 32.8298 37.1377 33.1686 37.1377C33.4652 37.1377 33.7393 37.0737 33.9858 36.9483C34.2007 36.8389 34.376 36.6882 34.5104 36.5028Z" fill="white"/>
<path d="M39.8395 32.873C39.5245 32.6863 39.1699 32.5916 38.785 32.5916C38.4001 32.5916 38.0759 32.6769 37.7925 32.8463C37.5447 32.9944 37.3483 33.1758 37.2073 33.3879V32.6636H36.4322V39.1387H37.2073V36.348C37.3523 36.5615 37.5513 36.7429 37.8004 36.8923C38.0838 37.0604 38.4146 37.1471 38.785 37.1471C39.1554 37.1471 39.5245 37.0497 39.8395 36.8563C40.1545 36.6628 40.405 36.3894 40.5842 36.0425C40.7635 35.6957 40.8544 35.2955 40.8544 34.854C40.8544 34.4124 40.7635 34.0082 40.5842 33.6681C40.405 33.3292 40.1545 33.0611 39.8395 32.8744M39.8711 35.7077C39.7433 35.9478 39.5693 36.1333 39.3531 36.2586C39.137 36.3854 38.8957 36.4494 38.6348 36.4494C38.3738 36.4494 38.1418 36.3854 37.9243 36.2586C37.7081 36.1333 37.5328 35.9465 37.4023 35.7077C37.2719 35.4676 37.2059 35.1835 37.2059 34.862C37.2059 34.5405 37.2719 34.263 37.4023 34.0229C37.5328 33.7828 37.7081 33.5974 37.9243 33.472C38.1405 33.3452 38.3804 33.2812 38.6348 33.2812C38.8892 33.2812 39.137 33.3439 39.3531 33.468C39.5693 33.592 39.7433 33.7748 39.8711 34.0109C39.999 34.2483 40.0636 34.5325 40.0636 34.8526C40.0636 35.1728 39.999 35.4663 39.8711 35.7077Z" fill="white"/>
<path d="M103.55 30.2064H102.681C102.684 29.8289 102.722 29.6715 103.342 29.6715V29.0898C102.18 29.0898 102.11 29.7768 102.106 30.2064H101.807V30.788H103.55V30.2064Z" fill="white"/>
<path d="M74.9655 35.4864V31.0256H74.2814V35.4864C74.2814 35.9867 73.882 36.3895 73.3891 36.3895H72.9712C72.2489 36.3895 71.8877 35.9467 71.8877 35.0622C71.8877 33.6202 71.1272 32.7358 69.8737 32.7358C68.6202 32.7358 67.8214 33.6589 67.8214 35.0049V35.1009C67.8214 35.5051 67.8214 35.8706 67.6118 36.1001C67.422 36.2922 67.0609 36.3882 66.5284 36.3882H64.799V37.0805H66.5284C67.2125 37.0805 67.687 36.9845 68.1997 36.4656C68.5411 36.9458 69.0921 37.1966 69.8144 37.1966C70.5749 37.1966 71.1628 36.9085 71.5437 36.3695C71.8482 36.8124 72.3227 37.0805 72.9686 37.0805H73.3864C74.2603 37.0805 74.9629 36.3695 74.9629 35.4851L74.9655 35.4864ZM69.817 36.5056C68.9247 36.5056 68.5055 36.0254 68.5055 35.0062C68.5055 34.0444 69.038 33.4295 69.8737 33.4295C70.6527 33.4295 71.2037 34.1018 71.2037 35.0636C71.2037 36.0254 70.7094 36.5056 69.817 36.5056Z" fill="white"/>
<path d="M18.1186 44.6909H15.3967V42.2617H14.6217V47.8564H15.3967V45.3485H18.1186V47.8564H18.8936V42.2617H18.1186V44.6909Z" fill="white"/>
<path d="M23.1049 43.6517C22.7728 43.4676 22.3958 43.3743 21.9846 43.3743C21.5733 43.3743 21.1976 43.4676 20.8642 43.6517C20.5307 43.8358 20.2644 44.104 20.072 44.4495C19.8796 44.7936 19.782 45.1951 19.782 45.6434C19.782 46.0916 19.8769 46.4998 20.0641 46.8453C20.2513 47.1908 20.5136 47.4602 20.8444 47.647C21.1739 47.8337 21.5469 47.9285 21.9529 47.9285C22.3589 47.9285 22.7438 47.8337 23.0812 47.647C23.4186 47.4602 23.6915 47.1908 23.8892 46.8453C24.0869 46.4998 24.1871 46.0956 24.1871 45.6434C24.1871 45.1911 24.0896 44.7869 23.8971 44.4454C23.7034 44.1026 23.4371 43.8358 23.1049 43.6517ZM23.1933 46.5171C23.0575 46.7546 22.8782 46.9346 22.6607 47.0534C22.4419 47.1721 22.2034 47.2321 21.9542 47.2321C21.7051 47.2321 21.4718 47.1734 21.2636 47.0574C21.0553 46.9413 20.8866 46.7639 20.7627 46.5264C20.6375 46.289 20.5742 45.9915 20.5742 45.6447C20.5742 45.2979 20.6388 45.0084 20.7666 44.7709C20.8945 44.5335 21.0645 44.3547 21.2754 44.24C21.4876 44.124 21.7236 44.0653 21.978 44.0653C22.2324 44.0653 22.463 44.124 22.6766 44.24C22.8901 44.3561 23.0654 44.5348 23.1972 44.7709C23.3303 45.0084 23.3976 45.3032 23.3976 45.6447C23.3976 45.9862 23.329 46.281 23.1946 46.5184" fill="white"/>
<path d="M27.4863 45.6019C27.2925 45.5205 27.0381 45.4351 26.7297 45.3511C26.4872 45.2831 26.2947 45.2204 26.1563 45.1657C26.0219 45.1123 25.9098 45.0389 25.8215 44.9496C25.7358 44.8642 25.6937 44.7521 25.6937 44.6187C25.6937 44.448 25.7635 44.3133 25.9085 44.2079C26.0548 44.1011 26.2539 44.0465 26.503 44.0465C26.7719 44.0465 26.988 44.1132 27.1462 44.2452C27.3031 44.3773 27.3914 44.5534 27.4059 44.7708L27.4085 44.8002H28.1836V44.7668C28.1612 44.3359 27.999 43.9931 27.6998 43.745C27.4019 43.4982 27.0078 43.3728 26.528 43.3728C26.217 43.3728 25.9362 43.4288 25.6924 43.5382C25.4472 43.6489 25.2561 43.7997 25.1229 43.9891C24.9885 44.1785 24.9213 44.3906 24.9213 44.6187C24.9213 44.9055 24.9964 45.1403 25.144 45.3177C25.2903 45.4925 25.4683 45.6259 25.6726 45.7153C25.8743 45.8033 26.1392 45.89 26.4568 45.9754C26.8035 46.0648 27.0619 46.1555 27.2266 46.2462C27.3848 46.3329 27.4612 46.4636 27.4612 46.6437C27.4612 46.8238 27.3887 46.9625 27.2385 47.0799C27.0882 47.1973 26.8773 47.256 26.6137 47.256C26.329 47.256 26.0957 47.188 25.9217 47.0559C25.749 46.9252 25.6515 46.7531 25.6317 46.5463L25.6291 46.5183H24.8316V46.5517C24.8501 46.8211 24.9358 47.0639 25.09 47.2707C25.2442 47.4774 25.4564 47.6415 25.7227 47.7562C25.9863 47.871 26.2895 47.9297 26.6203 47.9297C26.9314 47.9297 27.2121 47.8736 27.452 47.7642C27.6945 47.6535 27.8843 47.5001 28.0175 47.3054C28.1506 47.1106 28.2191 46.8878 28.2191 46.6437C28.2139 46.3729 28.1387 46.1501 27.9964 45.9807C27.8553 45.814 27.684 45.6872 27.4863 45.6032" fill="white"/>
<path d="M30.0935 42.3497H29.3184V43.4449H28.7622V44.1026H29.3184V46.6358C29.3184 47.0667 29.4226 47.3815 29.6269 47.5709C29.8299 47.7603 30.1383 47.8564 30.5416 47.8564H31.2152V47.184H30.6589C30.4494 47.184 30.3004 47.1427 30.2174 47.0613C30.1357 46.9813 30.0935 46.8372 30.0935 46.6344V44.1012H31.2152V43.4436H30.0935V42.3484V42.3497Z" fill="white"/>
<path d="M32.7916 43.4448H32.0166V47.8563H32.7916V43.4448Z" fill="white"/>
<path d="M32.416 41.7546C32.2723 41.7546 32.1484 41.8053 32.0496 41.9067C31.9507 42.0081 31.8993 42.1322 31.8993 42.2776C31.8993 42.423 31.9494 42.5484 32.0496 42.6484C32.1497 42.7498 32.2723 42.8005 32.416 42.8005C32.5597 42.8005 32.6743 42.7498 32.7719 42.6484C32.8681 42.547 32.9182 42.423 32.9182 42.2776C32.9182 42.1322 32.8694 42.0081 32.7719 41.9067C32.6743 41.8053 32.5557 41.7546 32.416 41.7546Z" fill="white"/>
<path d="M36.0711 43.3662C35.7745 43.3662 35.5003 43.4289 35.2538 43.5516C35.0377 43.6597 34.8584 43.8091 34.7213 43.9958V43.4449H33.9463V47.8564H34.7213V45.4205C34.7213 44.975 34.8307 44.6335 35.0456 44.4014C35.2604 44.1706 35.5557 44.0545 35.9208 44.0545C36.2859 44.0545 36.5693 44.1679 36.7776 44.3907C36.9858 44.6135 37.0913 44.9416 37.0913 45.3658V47.8577H37.8584V45.2631C37.8584 44.6535 37.6923 44.1799 37.3628 43.8558C37.0346 43.5316 36.5996 43.3675 36.0711 43.3675" fill="white"/>
<path d="M42.3373 44.1585C42.2002 43.9477 42.0065 43.7677 41.76 43.6236C41.4766 43.4568 41.1431 43.3728 40.7674 43.3728C40.3918 43.3728 40.028 43.4675 39.713 43.6543C39.3979 43.841 39.1475 44.1092 38.9682 44.448C38.789 44.7868 38.698 45.1857 38.698 45.6339C38.698 46.0821 38.789 46.4756 38.9682 46.8225C39.1475 47.1693 39.3979 47.4441 39.713 47.6362C40.028 47.8283 40.3826 47.9257 40.7674 47.9257C41.1523 47.9257 41.4753 47.8389 41.756 47.6669C42.0012 47.5175 42.1963 47.332 42.3373 47.1159V47.919C42.3373 48.3579 42.2147 48.7034 41.9735 48.9448C41.7323 49.1863 41.4159 49.309 41.0337 49.309C40.6963 49.309 40.4036 49.2289 40.1638 49.0715C39.9252 48.9155 39.7657 48.706 39.6906 48.4499L39.684 48.4272H38.9195L38.9247 48.4632C38.9933 48.9355 39.2226 49.313 39.6036 49.5878C39.9832 49.8599 40.4643 49.9986 41.0324 49.9986C41.4489 49.9986 41.8193 49.9093 42.133 49.7332C42.448 49.5558 42.6932 49.3076 42.8632 48.9942C43.0319 48.682 43.1176 48.3205 43.1176 47.9203V43.4448H42.3347V44.1585H42.3373ZM42.1449 46.489C42.017 46.7291 41.843 46.9145 41.6268 47.0399C41.4107 47.1666 41.1681 47.2307 40.9085 47.2307C40.6488 47.2307 40.4089 47.1666 40.1941 47.0412C39.9805 46.9145 39.8079 46.7291 39.68 46.4903C39.5522 46.2502 39.4876 45.962 39.4876 45.6352C39.4876 45.3084 39.5522 45.0309 39.68 44.7935C39.8079 44.556 39.9805 44.3733 40.1941 44.2506C40.4076 44.1265 40.6488 44.0638 40.9085 44.0638C41.1681 44.0638 41.4094 44.1278 41.6268 44.2546C41.843 44.3813 42.017 44.5654 42.1449 44.8028C42.2727 45.0403 42.3373 45.3244 42.3373 45.6446C42.3373 45.9647 42.2727 46.2502 42.1449 46.4916" fill="white"/>
<path d="M49.8597 44.6909H47.1365V42.2617H46.3615V47.8564H47.1365V45.3485H49.8597V47.8564H50.6347V42.2617H49.8597V44.6909Z" fill="white"/>
<path d="M52.1875 41.7546C52.0438 41.7546 51.9199 41.8053 51.821 41.9067C51.7222 42.0081 51.6708 42.1322 51.6708 42.2776C51.6708 42.423 51.7209 42.5484 51.821 42.6484C51.9212 42.7498 52.0438 42.8005 52.1875 42.8005C52.3311 42.8005 52.4458 42.7498 52.5434 42.6484C52.6396 42.547 52.6897 42.423 52.6897 42.2776C52.6897 42.1322 52.6409 42.0081 52.5434 41.9067C52.4458 41.8053 52.3272 41.7546 52.1875 41.7546Z" fill="white"/>
<path d="M52.5631 43.4448H51.7881V47.8563H52.5631V43.4448Z" fill="white"/>
<path d="M57.0908 44.1585C56.9537 43.9477 56.76 43.7677 56.5135 43.6236C56.2301 43.4568 55.8966 43.3728 55.521 43.3728C55.1453 43.3728 54.7815 43.4675 54.4665 43.6543C54.1514 43.841 53.901 44.1092 53.7218 44.448C53.5425 44.7868 53.4515 45.1857 53.4515 45.6339C53.4515 46.0821 53.5425 46.4756 53.7218 46.8225C53.901 47.1693 54.1514 47.4441 54.4665 47.6362C54.7815 47.8283 55.1361 47.9257 55.521 47.9257C55.9058 47.9257 56.2288 47.8389 56.5095 47.6669C56.7547 47.5175 56.9498 47.332 57.0908 47.1159V47.919C57.0908 48.3579 56.9682 48.7034 56.727 48.9448C56.4858 49.1863 56.1695 49.309 55.7872 49.309C55.4498 49.309 55.1572 49.2289 54.9173 49.0715C54.6787 48.9155 54.5192 48.706 54.4441 48.4499L54.4375 48.4272H53.673L53.6783 48.4632C53.7468 48.9355 53.9761 49.313 54.3571 49.5878C54.7367 49.8599 55.2178 49.9986 55.7859 49.9986C56.2024 49.9986 56.5728 49.9093 56.8865 49.7332C57.2015 49.5558 57.4467 49.3076 57.6167 48.9942C57.7854 48.682 57.8711 48.3205 57.8711 47.9203V43.4448H57.0882V44.1585H57.0908ZM56.8984 46.489C56.7705 46.7291 56.5965 46.9145 56.3804 47.0399C56.1642 47.1666 55.9217 47.2307 55.662 47.2307C55.4023 47.2307 55.1624 47.1666 54.9476 47.0412C54.734 46.9145 54.5614 46.7291 54.4335 46.4903C54.3057 46.2502 54.2411 45.962 54.2411 45.6352C54.2411 45.3084 54.3057 45.0309 54.4335 44.7935C54.5614 44.556 54.734 44.3733 54.9476 44.2506C55.1611 44.1265 55.4023 44.0638 55.662 44.0638C55.9217 44.0638 56.1629 44.1278 56.3804 44.2546C56.5965 44.3813 56.7705 44.5654 56.8984 44.8028C57.0262 45.0403 57.0908 45.3244 57.0908 45.6446C57.0908 45.9647 57.0262 46.2502 56.8984 46.4916" fill="white"/>
<path d="M62.0758 43.5795C61.8109 43.4381 61.5104 43.3661 61.1835 43.3661C60.8566 43.3661 60.5864 43.4288 60.3346 43.5515C60.1145 43.6596 59.9326 43.809 59.7942 43.997V41.9214H59.0192V47.8576H59.7942V45.4217C59.7942 44.9762 59.9036 44.6334 60.1185 44.4026C60.3333 44.1718 60.6286 44.0557 60.9937 44.0557C61.3588 44.0557 61.6422 44.1691 61.8504 44.3919C62.0574 44.6147 62.1628 44.9428 62.1628 45.367V47.8589H62.93V45.2643C62.93 44.8588 62.8535 44.5093 62.7032 44.2252C62.5517 43.9397 62.3408 43.7236 62.0745 43.5822" fill="white"/>
<path d="M67.0253 43.6477C66.7089 43.4663 66.3386 43.3743 65.9273 43.3743C65.5161 43.3743 65.1272 43.4676 64.803 43.6517C64.4774 43.8358 64.2217 44.104 64.0424 44.4454C63.8632 44.7869 63.7722 45.1898 63.7722 45.6434C63.7722 46.0969 63.8658 46.4998 64.0503 46.8453C64.2349 47.1908 64.4945 47.4602 64.8188 47.647C65.143 47.8337 65.5161 47.9285 65.9286 47.9285C66.4453 47.9285 66.8842 47.7937 67.2335 47.5296C67.5828 47.2641 67.8188 46.916 67.9348 46.4931L67.9453 46.4531H67.1149L67.1083 46.4744C67.0266 46.7105 66.8842 46.9013 66.6839 47.0427C66.4835 47.1841 66.2291 47.2548 65.9286 47.2548C65.5609 47.2548 65.2445 47.1361 64.9888 46.9013C64.7384 46.6732 64.596 46.3544 64.5657 45.9515H67.9954L67.998 45.9235C68.0139 45.7701 68.0218 45.622 68.0218 45.4833C68.0218 45.0831 67.9348 44.7189 67.7634 44.4014C67.5907 44.0826 67.3429 43.8292 67.0266 43.6477M64.5749 45.3032C64.6158 44.9163 64.7582 44.6082 64.9967 44.3881C65.2432 44.1613 65.5464 44.0466 65.8983 44.0466C66.1435 44.0466 66.3702 44.0973 66.5705 44.1987C66.7709 44.2987 66.9317 44.4468 67.0477 44.6389C67.1597 44.8243 67.219 45.0471 67.223 45.3019H64.5736L64.5749 45.3032Z" fill="white"/>
<path d="M70.1676 43.5755C69.9647 43.6956 69.7999 43.8597 69.676 44.0638V43.4448H68.9009V47.8562H69.676V45.4604C69.676 44.5947 70.0582 44.1731 70.8451 44.1731H71.0639V43.3647H71.0336C70.6949 43.3647 70.4036 43.4354 70.1676 43.5755Z" fill="white"/>
<path d="M76.4286 42.2937H75.5626L73.5788 47.815L73.5643 47.8564H74.3829L74.8218 46.6264H77.1627L77.6017 47.8564H78.4202L76.4365 42.315L76.4299 42.2937H76.4286ZM75.0472 45.9768L75.9923 43.3062L76.9373 45.9768H75.0485H75.0472Z" fill="white"/>
<path d="M82.3046 45.8648C82.3046 46.309 82.1966 46.6518 81.983 46.8826C81.7708 47.1134 81.4742 47.2294 81.1039 47.2294C80.7335 47.2294 80.4554 47.116 80.2471 46.8946C80.0388 46.6718 79.9334 46.3463 79.9334 45.9275V43.4436H79.1663V46.0222C79.1663 46.4277 79.2454 46.7772 79.4022 47.0613C79.5591 47.3455 79.7752 47.5629 80.0454 47.7043C80.3156 47.8457 80.6241 47.9191 80.9615 47.9191C81.2568 47.9191 81.5322 47.8551 81.7787 47.7297C81.9936 47.6189 82.1702 47.4695 82.3033 47.2841V47.8564H83.0784V43.4449H82.3033V45.8648H82.3046Z" fill="white"/>
<path d="M85.1583 42.3497H84.3833V43.4449H83.827V44.1026H84.3833V46.6358C84.3833 47.0667 84.4874 47.3815 84.6917 47.5709C84.8947 47.7603 85.2031 47.8564 85.6065 47.8564H86.28V47.184H85.7238C85.5142 47.184 85.3653 47.1427 85.2822 47.0613C85.2005 46.9813 85.1583 46.8372 85.1583 46.6344V44.1012H86.28V43.4436H85.1583V42.3484V42.3497Z" fill="white"/>
<path d="M90.1381 43.5795C89.8732 43.4381 89.5726 43.3661 89.2457 43.3661C88.9189 43.3661 88.6486 43.4288 88.3969 43.5515C88.1768 43.6596 87.9949 43.809 87.8565 43.997V41.9214H87.0814V47.8576H87.8565V45.4217C87.8565 44.9762 87.9659 44.6334 88.1807 44.4026C88.3956 44.1718 88.6908 44.0557 89.0559 44.0557C89.421 44.0557 89.7044 44.1691 89.9127 44.3919C90.1196 44.6147 90.2251 44.9428 90.2251 45.367V47.8589H90.9922V45.2643C90.9922 44.8588 90.9158 44.5093 90.7655 44.2252C90.6139 43.9397 90.403 43.7236 90.1368 43.5822" fill="white"/>
<path d="M95.1574 43.6517C94.8252 43.4676 94.4483 43.3743 94.037 43.3743C93.6258 43.3743 93.2501 43.4676 92.9166 43.6517C92.5832 43.8358 92.3169 44.104 92.1245 44.4495C91.932 44.7936 91.8345 45.1951 91.8345 45.6434C91.8345 46.0916 91.9294 46.4998 92.1165 46.8453C92.3037 47.1908 92.5673 47.4602 92.8969 47.647C93.2264 47.8337 93.5994 47.9285 94.0054 47.9285C94.4114 47.9285 94.7962 47.8337 95.1337 47.647C95.4711 47.4602 95.744 47.1908 95.9417 46.8453C96.1394 46.4998 96.2396 46.0956 96.2396 45.6434C96.2396 45.1911 96.142 44.7869 95.9496 44.4454C95.7558 44.1026 95.4896 43.8358 95.1574 43.6517ZM95.2457 46.5171C95.1099 46.7546 94.9307 46.9346 94.7132 47.0534C94.4944 47.1721 94.2558 47.2321 94.0067 47.2321C93.7576 47.2321 93.5243 47.1734 93.316 47.0574C93.1078 46.9413 92.939 46.7639 92.8151 46.5264C92.6899 46.289 92.6267 45.9915 92.6267 45.6447C92.6267 45.2979 92.6912 45.0084 92.8191 44.7709C92.947 44.5335 93.117 44.3547 93.3279 44.24C93.5401 44.124 93.776 44.0653 94.0317 44.0653C94.2875 44.0653 94.5168 44.124 94.7303 44.24C94.9439 44.3561 95.1192 44.5348 95.251 44.7709C95.3841 45.0084 95.4513 45.3032 95.4513 45.6447C95.4513 45.9862 95.3828 46.281 95.2483 46.5184" fill="white"/>
<path d="M98.3868 43.5755C98.1838 43.6956 98.0191 43.8597 97.8952 44.0638V43.4448H97.1201V47.8562H97.8952V45.4604C97.8952 44.5947 98.2774 44.1731 99.0643 44.1731H99.2831V43.3647H99.2528C98.914 43.3647 98.6227 43.4354 98.3868 43.5755Z" fill="white"/>
<path d="M100.82 43.4448H100.045V47.8563H100.82V43.4448Z" fill="white"/>
<path d="M100.444 41.7546C100.301 41.7546 100.177 41.8053 100.078 41.9067C99.979 42.0081 99.9276 42.1322 99.9276 42.2776C99.9276 42.423 99.9777 42.5484 100.078 42.6484C100.178 42.7498 100.301 42.8005 100.444 42.8005C100.588 42.8005 100.703 42.7498 100.8 42.6484C100.896 42.547 100.946 42.423 100.946 42.2776C100.946 42.1322 100.898 42.0081 100.8 41.9067C100.703 41.8053 100.584 41.7546 100.444 41.7546Z" fill="white"/>
<path d="M102.907 42.3497H102.131V43.4449H101.575V44.1026H102.131V46.6358C102.131 47.0667 102.236 47.3815 102.44 47.5709C102.643 47.7603 102.951 47.8564 103.355 47.8564H104.028V47.184H103.472C103.262 47.184 103.113 47.1427 103.03 47.0613C102.949 46.9813 102.907 46.8372 102.907 46.6344V44.1012H104.028V43.4436H102.907V42.3484V42.3497Z" fill="white"/>
<path d="M106.492 46.9145L105.171 43.4648L105.163 43.4448H104.305L106.05 47.7776L105.191 49.9039H105.995L108.59 43.4875L108.607 43.4448H107.803L106.492 46.9145Z" fill="white"/>
<path d="M108.607 19.8201H107.922V25.8723H108.607V19.8201Z" fill="white"/>
<path d="M68.2761 25.8711H80.5186C81.382 25.8711 82.0859 25.1601 82.0859 24.285V19.8188H81.4004V24.285C81.4004 24.7772 81.005 25.1774 80.5186 25.1774H78.0037L79.3534 22.4361V21.553H74.9062V22.4334L76.2019 25.1774H73.0872V19.8188H72.4018V25.1774H70.4207V21.629H69.7353V25.1774H68.2761C67.7898 25.1774 67.3943 24.7772 67.3943 24.285V19.8188H66.7089V24.285C66.7089 25.1587 67.4115 25.8711 68.2761 25.8711ZM75.5929 22.2467H78.668L77.2682 25.1094H76.9334L75.5929 22.2467Z" fill="white"/>
<path d="M63.9291 24.2862V19.8201H63.2437V24.2862C63.2437 24.7784 62.8482 25.1786 62.3619 25.1786H62.2683L61.082 20.7819L60.3676 20.7765L61.5552 25.1786H59.7296V25.8723H62.3605C63.2252 25.8723 63.9278 25.1613 63.9278 24.2862" fill="white"/>
<path d="M40.0649 25.8712H57.1277C57.9923 25.8712 58.6949 25.1602 58.6949 24.2851V21.6292H58.0095V24.2851C58.0095 24.7773 57.614 25.1775 57.1277 25.1775H55.9954V22.1241H55.31V25.1775H53.3948V22.1241H52.7094V25.1775H50.441V21.6292H49.7556V25.1775H47.2683C47.6308 24.4745 47.694 23.5914 47.3922 22.8658C47.0719 22.0934 46.3997 21.6492 45.5508 21.6492C43.8531 21.6492 42.6325 22.8684 41.9023 23.9049V22.3895H41.2169V25.0601C41.1958 25.1042 41.1774 25.1428 41.1616 25.1762H40.0662C39.5798 25.1762 39.1844 24.776 39.1844 24.2838V19.8176H38.499V24.2838C38.499 25.1575 39.2015 25.8699 40.0662 25.8699M45.5508 22.3415C46.2797 22.3415 46.6106 22.7724 46.7608 23.1326C47.031 23.7835 46.8913 24.6333 46.4458 25.1762H41.9313C42.4032 24.2904 43.658 22.3415 45.5508 22.3415Z" fill="white"/>
<path d="M84.146 19.8201H83.4606V25.8723H84.146V19.8201Z" fill="white"/>
<path d="M105.86 19.8201V24.2862C105.86 24.7784 105.465 25.1786 104.979 25.1786H104.105V24.6851C104.105 22.6334 102.924 21.6369 100.494 21.6369H99.3107V22.3306H100.494C103.073 22.3306 103.419 23.5205 103.419 24.6851V25.1786H102.421V24.8972C102.421 23.6846 101.505 23.1323 100.655 23.1323C99.805 23.1323 98.7848 23.6232 98.7848 25.0092V25.1786H97.1319V21.6303H96.4465V25.1786H93.9026V21.6303H93.2172V25.1786H92.7941H90.6851V21.6409H89.1271C87.7589 21.6409 86.8666 22.4867 86.8666 23.7753C86.8666 25.0639 87.7589 25.871 89.1271 25.871H89.1284L89.1218 25.8736H104.979C105.842 25.8736 106.546 25.1626 106.546 24.2875V19.8214H105.86V19.8201ZM87.5494 23.774C87.5494 22.8509 88.1188 22.3319 89.1258 22.3319H89.9997V25.1773H89.1258C88.1188 25.1773 87.5494 24.6771 87.5494 23.774ZM101.736 25.1786H99.4702V25.0092C99.4702 23.9407 100.299 23.826 100.657 23.826C100.837 23.826 101.737 23.878 101.737 24.8972V25.1786H101.736Z" fill="white"/>
<path d="M94.4325 20.3431H93.5638C93.5665 19.9656 93.6047 19.8082 94.2242 19.8082V19.2266C93.063 19.2266 92.9931 19.9136 92.9891 20.3431H92.6899V20.9247H94.4325V20.3431Z" fill="white"/>
<path d="M97.4536 26.9316C97.3191 26.9316 97.2044 26.9797 97.1108 27.073C97.0186 27.1678 96.9711 27.2838 96.9711 27.4199C96.9711 27.5559 97.0186 27.672 97.1108 27.7667C97.2044 27.8614 97.3191 27.9081 97.4536 27.9081C97.588 27.9081 97.6948 27.8601 97.7844 27.7654C97.8753 27.6707 97.9202 27.5546 97.9202 27.4199C97.9202 27.2851 97.874 27.1678 97.7844 27.073C97.6934 26.9783 97.5827 26.9316 97.4536 26.9316Z" fill="white"/>
<path d="M96.1895 26.9316C96.055 26.9316 95.9403 26.9797 95.8467 27.073C95.7545 27.1678 95.707 27.2838 95.707 27.4199C95.707 27.5559 95.7545 27.672 95.8467 27.7667C95.9403 27.8614 96.055 27.9081 96.1895 27.9081C96.3239 27.9081 96.4307 27.8601 96.5203 27.7654C96.6113 27.6707 96.6561 27.5546 96.6561 27.4199C96.6561 27.2851 96.6099 27.1678 96.5203 27.073C96.4294 26.9783 96.3186 26.9316 96.1895 26.9316Z" fill="white"/>
<path d="M70.6988 26.9248C70.5644 26.9248 70.4497 26.9755 70.3575 27.0702C70.2652 27.1649 70.219 27.2823 70.2204 27.4184C70.2204 27.5544 70.2705 27.6705 70.364 27.7639C70.4576 27.8573 70.5736 27.9039 70.7081 27.9026C70.8372 27.9026 70.948 27.8533 71.0376 27.7572C71.1272 27.6625 71.172 27.5451 71.1707 27.4104C71.1694 27.2756 71.1219 27.1596 71.031 27.0649C70.9387 26.9715 70.828 26.9248 70.6988 26.9261" fill="white"/>
<path d="M69.4361 26.937C69.3016 26.937 69.187 26.9877 69.0947 27.0824C69.0024 27.1771 68.9563 27.2945 68.9576 27.4306C68.9576 27.5666 69.0077 27.6827 69.1013 27.7761C69.1949 27.8695 69.3109 27.9161 69.4453 27.9148C69.5745 27.9148 69.6852 27.8655 69.7748 27.7694C69.8645 27.6747 69.9093 27.5573 69.908 27.4226C69.9066 27.2878 69.8592 27.1718 69.7682 27.0771C69.676 26.9837 69.5653 26.937 69.4361 26.9383" fill="white"/>
<path d="M90.2449 19.7896C90.1104 19.7896 89.9958 19.8376 89.9022 19.931C89.8099 20.0257 89.7625 20.1417 89.7625 20.2778C89.7625 20.4138 89.8099 20.5299 89.9022 20.6246C89.9958 20.7193 90.1104 20.766 90.2449 20.766C90.3793 20.766 90.4861 20.718 90.5757 20.6233C90.6667 20.5286 90.7115 20.4125 90.7115 20.2778C90.7115 20.1431 90.6653 20.0257 90.5757 19.931C90.4848 19.8362 90.374 19.7896 90.2449 19.7896Z" fill="white"/>
<path d="M88.9808 19.7896C88.8464 19.7896 88.7317 19.8376 88.6381 19.931C88.5459 20.0257 88.4984 20.1417 88.4984 20.2778C88.4984 20.4138 88.5459 20.5299 88.6381 20.6246C88.7317 20.7193 88.8464 20.766 88.9808 20.766C89.1153 20.766 89.2221 20.718 89.3117 20.6233C89.4026 20.5286 89.4474 20.4125 89.4474 20.2778C89.4474 20.1431 89.4013 20.0257 89.3117 19.931C89.2207 19.8362 89.11 19.7896 88.9808 19.7896Z" fill="white"/>
<path d="M50.7455 19.584C50.611 19.584 50.4963 19.6347 50.4041 19.7294C50.3118 19.8241 50.2657 19.9415 50.267 20.0776C50.267 20.2136 50.3171 20.3297 50.4107 20.4231C50.5043 20.5164 50.6202 20.5631 50.7547 20.5618C50.8891 20.5605 50.9946 20.5124 51.0842 20.4164C51.1738 20.3217 51.2187 20.2043 51.2173 20.0696C51.2173 19.9348 51.1686 19.8188 51.0776 19.7241C50.9854 19.6307 50.8746 19.584 50.7455 19.5853" fill="white"/>
<path d="M49.4814 19.5962C49.3469 19.5962 49.2322 19.6469 49.14 19.7416C49.0477 19.8363 49.0016 19.9537 49.0029 20.0898C49.0029 20.2258 49.053 20.3419 49.1466 20.4353C49.2402 20.5286 49.3561 20.5753 49.4906 20.574C49.6198 20.574 49.7305 20.5246 49.8201 20.4286C49.9097 20.3339 49.9546 20.2165 49.9532 20.0818C49.9519 19.947 49.9045 19.831 49.8135 19.7363C49.7213 19.6429 49.6105 19.5962 49.4814 19.5975" fill="white"/>
<path d="M31.1216 19.584C30.9871 19.584 30.8725 19.6347 30.7802 19.7294C30.6879 19.8241 30.6418 19.9415 30.6431 20.0776C30.6431 20.2136 30.6932 20.3297 30.7868 20.4231C30.8804 20.5164 30.9964 20.5631 31.1308 20.5618C31.2653 20.5605 31.3707 20.5124 31.4603 20.4164C31.55 20.3217 31.5948 20.2043 31.5935 20.0696C31.5935 19.9348 31.5447 19.8188 31.4538 19.7241C31.3615 19.6307 31.2508 19.584 31.1216 19.5853" fill="white"/>
<path d="M29.8589 19.5962C29.7244 19.5962 29.6097 19.6469 29.5175 19.7416C29.4252 19.8363 29.3791 19.9537 29.3804 20.0898C29.3804 20.2258 29.4305 20.3419 29.5241 20.4353C29.6177 20.5286 29.7337 20.5753 29.8681 20.574C29.9973 20.574 30.108 20.5246 30.1976 20.4286C30.2873 20.3339 30.3321 20.2165 30.3307 20.0818C30.3307 19.947 30.282 19.831 30.191 19.7363C30.0988 19.6429 29.988 19.5962 29.8589 19.5975" fill="white"/>
<path d="M43.7569 19.5962C43.6224 19.5962 43.5078 19.6469 43.4155 19.7416C43.3232 19.8363 43.2771 19.9537 43.2784 20.0898C43.2784 20.2258 43.3285 20.3419 43.4221 20.4353C43.5157 20.5286 43.6317 20.5753 43.7661 20.574C43.8953 20.574 44.006 20.5246 44.0956 20.4286C44.1853 20.3339 44.2301 20.2165 44.2288 20.0818C44.2288 19.947 44.18 19.831 44.089 19.7363C43.9968 19.6429 43.8861 19.5962 43.7569 19.5975" fill="white"/>
<path d="M35.5728 19.5962C35.4384 19.5962 35.3237 19.6469 35.2314 19.7416C35.1392 19.8363 35.093 19.9537 35.0944 20.0898C35.0944 20.2258 35.1444 20.3419 35.238 20.4353C35.3316 20.5286 35.4476 20.5753 35.5821 20.574C35.7112 20.574 35.8219 20.5246 35.9116 20.4286C36.0012 20.3339 36.046 20.2165 36.0447 20.0818C36.0447 19.947 35.9959 19.831 35.905 19.7363C35.8127 19.6429 35.702 19.5962 35.5728 19.5975" fill="white"/>
<path d="M37.3971 23.7542C37.3971 22.3122 36.6181 21.4277 35.4028 21.4277C34.1875 21.4277 33.3321 22.3122 33.3321 23.7542C33.3321 24.2931 33.4454 24.7733 33.6735 25.1775H31.5645V21.6398H30.0065C28.6383 21.6398 27.746 22.4856 27.746 23.7742C27.746 25.0628 28.6383 25.8699 30.0065 25.8699H35.5728C36.713 25.8699 37.3971 25.0815 37.3971 23.7555V23.7542ZM30.8804 22.3308V25.1762H30.0065C28.9995 25.1762 28.4301 24.676 28.4301 23.7729C28.4301 22.8698 28.9995 22.3308 30.0065 22.3308H30.8804ZM35.5728 25.1762H34.5658C34.2244 24.9067 34.0148 24.4065 34.0148 23.7528C34.0148 22.715 34.5474 22.1187 35.4015 22.1187C36.1423 22.1187 36.713 22.8111 36.713 23.7528C36.713 24.6373 36.3136 25.1762 35.5728 25.1762Z" fill="white"/>
</g>
<defs>
<clipPath id="clip0_15_8278">
<rect width="139" height="50" fill="white"/>
</clipPath>
</defs>
</svg>
